<svg width="1113" height="331" viewBox="0 0 1113 331" fill="none" xmlns="http://www.w3.org/2000/svg">
<path d="M129 243.946L195.879 203.321L133 158.446L66.4394 204.676L129 243.946Z" fill="#F2734D"/>
<path d="M3 169.446C7 167.644 10 169.446 13.5 171.446L66.4394 204.676L133 158.446L16 85.4457C11 82.4457 8 81.279 4.5 82.4456C0.340751 83.832 0 87.4456 0 89.9459V172.446C1 170.446 2.14183 169.833 3 169.446Z" fill="#F8C00B"/>
<path d="M13.5 171.446C10 169.446 7 167.644 3 169.446C2.14183 169.833 1 170.446 0 172.446V239.664C0 242.446 1 243.946 3 244.446C7.5 245.571 9.5 243.946 13.5 241.446L66.4394 204.676L13.5 171.446Z" fill="#FFDB63"/>
<path d="M3 244.446C1 243.946 0 242.446 0 239.664V319.946C0 323.446 0.890118 324.446 2.5 325.446C6 327.62 9.5 325.946 13.5 323.446L129 243.946L66.4394 204.676L13.5 241.446C9.5 243.946 7.5 245.571 3 244.446Z" fill="#F8C00B"/>
<path d="M253.5 328.446C256.5 328.446 260.5 326.446 261 319.946V240.946L259 242.446C256 244.446 253.5 244.446 250 241.946L195.879 203.321L129 243.946L247 325.446C249.096 326.787 252 328.446 253.5 328.446Z" fill="#EC268F"/>
<path d="M258.5 170.446C255.177 168.949 253.322 168.86 250 170.446L195.879 203.321L250 241.946C253.5 244.446 256 244.446 259 242.446L261 240.946V171.946L258.5 170.446Z" fill="#F49CC2"/>
<path d="M250 170.446C253.322 168.86 255.177 168.949 258.5 170.446L261 171.946V94.446C261 90.446 260 87.946 256.5 85.9461C253 83.9461 250.5 85.946 247 87.946L133 158.446L195.879 203.321L250 170.446Z" fill="#EC268F"/>
<path d="M130 135.946L89 109.946L130 84.4457L171.5 109.946L130 135.946Z" fill="#EC268F"/>
<path d="M129 312.946L89.5 286.446L130.5 261.446L170.5 286.446L129 312.946Z" fill="#F8C00B"/>
<path d="M155 4.49987C141.5 16 142 39.5001 143 78C144.5 62.0001 147.5 48.1561 159.5 40.5C167 35.7145 171 35 178.5 26.5C185 16.5 182.5 8.5 178 4.49977C175 1.00001 164 -3.16694 155 4.49987Z" fill="#E9E9E9"/>
<path d="M105.45 4.32446C118.95 15.8245 118.449 39.3247 117.449 77.8246C115.949 61.8247 112.949 47.9807 100.95 40.3246C93.4495 35.5391 89.4495 34.8246 81.9495 26.3246C75.4497 16.3246 77.9497 8.32458 82.4496 4.32436C85.4497 0.824598 96.4497 -3.34236 105.45 4.32446Z" fill="#E9E9E9"/>
<path d="M446.342 118.251C446.342 126.83 444.733 134.874 441.516 142.381C438.299 149.887 433.932 156.399 428.417 161.914C422.902 167.429 416.314 171.795 408.654 175.013C401.147 178.077 393.104 179.609 384.525 179.609C378.55 179.609 372.728 178.766 367.06 177.081C361.391 175.396 356.182 173.021 351.433 169.957V178H320.409V17.1376L351.892 10.2435V67.6944C356.642 64.1707 361.851 61.4897 367.519 59.6513C373.341 57.6596 379.316 56.6638 385.444 56.6638C393.87 56.6638 401.76 58.2724 409.114 61.4897C416.62 64.7069 423.132 69.0732 428.647 74.5885C434.162 80.1038 438.452 86.6149 441.516 94.1218C444.733 101.629 446.342 109.672 446.342 118.251ZM380.388 83.5508C374.72 83.5508 369.434 84.5466 364.532 86.5383C359.629 88.3767 355.416 91.1343 351.892 94.8112V141.921C355.263 145.291 359.399 147.972 364.302 149.964C369.358 151.956 374.72 152.951 380.388 152.951C390.193 152.951 398.466 149.658 405.207 143.07C411.948 136.329 415.318 128.056 415.318 118.251C415.318 108.446 411.871 100.25 404.977 93.6622C398.236 86.9213 390.04 83.5508 380.388 83.5508Z" fill="#E9E9E9"/>
<path d="M573.823 163.063C566.47 169.038 558.886 173.404 551.073 176.162C543.413 178.919 534.833 180.298 525.335 180.298C516.296 180.298 507.793 178.689 499.827 175.472C492.013 172.255 485.196 167.889 479.374 162.373C473.706 156.858 469.186 150.347 465.816 142.84C462.599 135.18 460.99 126.984 460.99 118.251C460.99 109.672 462.522 101.629 465.586 94.1218C468.803 86.4617 473.169 79.874 478.685 74.3587C484.2 68.6902 490.711 64.2473 498.218 61.0301C505.878 57.8128 513.998 56.2042 522.577 56.2042C531.003 56.2042 538.817 57.8894 546.017 61.2599C553.371 64.4771 559.652 68.92 564.861 74.5885C570.223 80.257 574.36 87.0745 577.27 95.041C580.334 102.854 581.867 111.357 581.867 120.549V128.822H492.703C494.848 136.329 498.984 142.381 505.112 146.977C511.24 151.573 518.441 153.871 526.714 153.871C531.923 153.871 536.825 153.028 541.421 151.343C546.017 149.658 549.924 147.283 553.141 144.219L573.823 163.063ZM521.888 82.172C514.687 82.172 508.483 84.3934 503.274 88.8363C498.065 93.126 494.465 98.9477 492.473 106.301H551.073C549.081 99.2541 545.404 93.509 540.042 89.0661C534.833 84.47 528.782 82.172 521.888 82.172Z" fill="#E9E9E9"/>
<path d="M709.371 163.063C702.018 169.038 694.434 173.404 686.621 176.162C678.961 178.919 670.382 180.298 660.883 180.298C651.844 180.298 643.341 178.689 635.375 175.472C627.561 172.255 620.744 167.889 614.922 162.373C609.254 156.858 604.734 150.347 601.364 142.84C598.147 135.18 596.538 126.984 596.538 118.251C596.538 109.672 598.07 101.629 601.134 94.1218C604.351 86.4617 608.718 79.874 614.233 74.3587C619.748 68.6902 626.259 64.2473 633.766 61.0301C641.426 57.8128 649.546 56.2042 658.125 56.2042C666.551 56.2042 674.365 57.8894 681.565 61.2599C688.919 64.4771 695.2 68.92 700.409 74.5885C705.771 80.257 709.908 87.0745 712.819 95.041C715.883 102.854 717.415 111.357 717.415 120.549V128.822H628.251C630.396 136.329 634.532 142.381 640.66 146.977C646.788 151.573 653.989 153.871 662.262 153.871C667.471 153.871 672.373 153.028 676.969 151.343C681.565 149.658 685.472 147.283 688.689 144.219L709.371 163.063ZM657.436 82.172C650.235 82.172 644.031 84.3934 638.822 88.8363C633.613 93.126 630.013 98.9477 628.021 106.301H686.621C684.629 99.2541 680.952 93.509 675.59 89.0661C670.382 84.47 664.33 82.172 657.436 82.172Z" fill="#E9E9E9"/>
<path d="M798.56 44.0246C793.658 44.0246 789.445 42.2628 785.921 38.7392C782.398 35.2155 780.636 31.0024 780.636 26.1C780.636 21.1975 782.398 16.9844 785.921 13.4608C789.445 9.93712 793.658 8.17529 798.56 8.17529C803.463 8.17529 807.676 9.93712 811.2 13.4608C814.723 16.9844 816.485 21.1975 816.485 26.1C816.485 31.0024 814.723 35.2155 811.2 38.7392C807.676 42.2628 803.463 44.0246 798.56 44.0246ZM814.417 58.2724V178H782.934V58.2724H814.417Z" fill="#E9E9E9"/>
<path d="M839.038 178V58.2724H870.521V67.6944C875.117 63.8643 880.173 60.9535 885.688 58.9619C891.357 56.9702 897.485 55.9744 904.072 55.9744C917.861 55.9744 929.198 60.4173 938.083 69.303C946.969 78.1887 951.412 89.6023 951.412 103.544V178H919.929V108.14C919.929 100.633 917.631 94.5814 913.035 89.9853C908.592 85.3893 902.617 83.0912 895.11 83.0912C889.901 83.0912 885.152 84.1636 880.862 86.3085C876.726 88.3001 873.279 91.2109 870.521 95.041V178H839.038Z" fill="#E9E9E9"/>
<path d="M387.875 303.482C393.075 303.482 397.905 302.441 402.363 300.361C406.969 298.281 411.353 295.012 415.513 290.554L433.791 309.5C427.847 316.038 420.714 321.165 412.393 324.88C404.072 328.446 395.453 330.229 386.537 330.229C378.067 330.229 370.043 328.669 362.465 325.548C355.035 322.428 348.571 318.193 343.073 312.843C337.723 307.494 333.488 301.178 330.368 293.897C327.247 286.467 325.687 278.517 325.687 270.047C325.687 261.577 327.247 253.702 330.368 246.421C333.488 238.991 337.723 232.601 343.073 227.252C348.571 221.754 355.035 217.444 362.465 214.324C370.043 211.203 378.067 209.643 386.537 209.643C395.75 209.643 404.592 211.5 413.062 215.215C421.532 218.782 428.739 223.834 434.682 230.372L415.959 250.21C411.799 245.603 407.341 242.111 402.586 239.734C397.83 237.356 392.704 236.167 387.206 236.167C378.439 236.167 371.009 239.437 364.916 245.975C358.972 252.513 356.001 260.537 356.001 270.047C356.001 279.558 359.047 287.508 365.139 293.897C371.38 300.287 378.959 303.482 387.875 303.482Z" fill="#E9E9E9"/>
<path d="M439.964 270.047C439.964 261.577 441.524 253.702 444.645 246.421C447.914 238.991 452.297 232.601 457.796 227.252C463.442 221.754 470.055 217.444 477.633 214.324C485.212 211.203 493.31 209.643 501.929 209.643C510.547 209.643 518.646 211.203 526.224 214.324C533.803 217.444 540.341 221.754 545.839 227.252C551.486 232.601 555.869 238.991 558.99 246.421C562.259 253.702 563.893 261.577 563.893 270.047C563.893 278.517 562.259 286.467 558.99 293.897C555.869 301.178 551.486 307.494 545.839 312.843C540.341 318.193 533.803 322.428 526.224 325.548C518.646 328.669 510.547 330.229 501.929 330.229C493.31 330.229 485.212 328.669 477.633 325.548C470.055 322.428 463.442 318.193 457.796 312.843C452.297 307.494 447.914 301.178 444.645 293.897C441.524 286.467 439.964 278.517 439.964 270.047ZM501.929 303.705C510.844 303.705 518.423 300.435 524.664 293.897C530.905 287.359 534.026 279.409 534.026 270.047C534.026 260.537 530.905 252.513 524.664 245.975C518.423 239.437 510.844 236.167 501.929 236.167C493.013 236.167 485.434 239.437 479.193 245.975C472.952 252.513 469.832 260.537 469.832 270.047C469.832 279.409 472.952 287.359 479.193 293.897C485.434 300.435 493.013 303.705 501.929 303.705Z" fill="#E9E9E9"/>
<path d="M582.664 328V211.872H613.2V221.011C617.658 217.296 622.562 214.472 627.911 212.541C633.409 210.609 639.353 209.643 645.743 209.643C659.116 209.643 670.113 213.952 678.731 222.571C687.35 231.189 691.659 242.26 691.659 255.782V328H661.123V260.24C661.123 252.959 658.894 247.089 654.436 242.631C650.126 238.173 644.331 235.945 637.05 235.945C631.998 235.945 627.391 236.985 623.23 239.065C619.218 240.997 615.875 243.82 613.2 247.535V328H582.664Z" fill="#E9E9E9"/>
<path d="M726.262 295.235V237.505H702.412V211.872H726.262V182.227L756.798 175.317V211.872H789.787V237.505H756.798V288.993C756.798 294.492 757.987 298.355 760.365 300.584C762.742 302.813 766.903 303.927 772.847 303.927C775.67 303.927 778.345 303.779 780.871 303.482C783.397 303.036 786.146 302.293 789.118 301.253V326.217C785.849 327.257 781.911 328.074 777.305 328.669C772.698 329.412 768.76 329.783 765.491 329.783C752.563 329.783 742.756 326.886 736.069 321.09C729.531 315.146 726.262 306.528 726.262 295.235Z" fill="#E9E9E9"/>
<path d="M804.905 328V211.872H835.442V224.577C839.157 219.525 843.615 215.735 848.816 213.209C854.165 210.535 860.035 209.197 866.424 209.197C869.396 209.346 871.848 209.643 873.78 210.089C875.86 210.386 877.643 210.98 879.129 211.872V238.619C876.9 237.579 874.448 236.836 871.774 236.39C869.099 235.796 866.35 235.499 863.527 235.499C857.583 235.499 852.085 236.985 847.032 239.957C842.129 242.929 838.265 247.238 835.442 252.885V328H804.905Z" fill="#E9E9E9"/>
<path d="M884.665 270.047C884.665 261.577 886.225 253.702 889.346 246.421C892.615 238.991 896.999 232.601 902.497 227.252C908.143 221.754 914.756 217.444 922.334 214.324C929.913 211.203 938.011 209.643 946.63 209.643C955.248 209.643 963.347 211.203 970.925 214.324C978.504 217.444 985.042 221.754 990.54 227.252C996.187 232.601 1000.57 238.991 1003.69 246.421C1006.96 253.702 1008.59 261.577 1008.59 270.047C1008.59 278.517 1006.96 286.467 1003.69 293.897C1000.57 301.178 996.187 307.494 990.54 312.843C985.042 318.193 978.504 322.428 970.925 325.548C963.347 328.669 955.248 330.229 946.63 330.229C938.011 330.229 929.913 328.669 922.334 325.548C914.756 322.428 908.143 318.193 902.497 312.843C896.999 307.494 892.615 301.178 889.346 293.897C886.225 286.467 884.665 278.517 884.665 270.047ZM946.63 303.705C955.546 303.705 963.124 300.435 969.365 293.897C975.606 287.359 978.727 279.409 978.727 270.047C978.727 260.537 975.606 252.513 969.365 245.975C963.124 239.437 955.546 236.167 946.63 236.167C937.714 236.167 930.136 239.437 923.895 245.975C917.653 252.513 914.533 260.537 914.533 270.047C914.533 279.409 917.653 287.359 923.895 293.897C930.136 300.435 937.714 303.705 946.63 303.705Z" fill="#E9E9E9"/>
<path d="M1057.9 165.287V328H1027.36V171.974L1057.9 165.287Z" fill="#E9E9E9"/>
<path d="M1112.32 165.287V328H1081.78V171.974L1112.32 165.287Z" fill="#E9E9E9"/>
</svg>
