<svg width="308" height="71" viewBox="0 0 308 71" fill="none" xmlns="http://www.w3.org/2000/svg">
<path fill-rule="evenodd" clip-rule="evenodd" d="M0 16.2974V48.7566C0 49.7899 0.247917 50.7517 0.735666 51.6179C0.841098 51.8054 0.957983 52.0398 1.0971 52.2196L1.57845 52.7631C1.87622 53.1187 2.21171 53.4408 2.64725 53.7428L3.95555 54.4476C4.15901 54.5139 4.5164 54.6209 4.66831 54.6597C5.99581 54.9988 6.56036 54.9009 7.86091 54.9012H58.1931C58.4969 54.9012 58.8944 54.9319 59.5313 54.842C60.525 54.7017 61.5676 54.3137 62.3905 53.7424C62.8951 53.3923 63.5566 52.7256 63.9157 52.2532C64.4509 51.5487 64.5584 51.0741 64.8019 50.3615C64.9818 49.8345 65 49.4061 65 48.6444V16.2968C64.9997 14.9595 64.9181 15.1025 64.6615 14.2185C64.6315 14.115 64.6453 14.1386 64.6224 14.0514C64.5456 13.7597 64.0225 12.8583 63.8369 12.6517C63.8291 12.643 63.8173 12.631 63.8096 12.6226L63.7008 12.503C63.6105 12.3982 63.558 12.3416 63.4603 12.234C63.2127 11.9611 63.3225 11.9611 62.956 11.716C62.5865 11.4693 62.0142 10.8621 61.0788 10.5514C59.4161 9.99921 59.1295 10.0956 57.263 10.0959H7.77435C7.46512 10.0959 5.76339 10.0348 5.04692 10.2197C4.42444 10.3804 3.71572 10.6416 3.13871 10.9472C3.12793 10.9527 3.11378 10.9611 3.10334 10.9669L2.11605 11.6931C1.74283 11.9495 1.86847 11.8977 1.60708 12.2052C1.00548 12.9142 1.2864 12.4403 0.738698 13.3766C0.620129 13.5796 0.504928 13.7406 0.425096 14.0187C0.382317 14.1677 0.396465 14.169 0.337854 14.3339C0.278569 14.5011 0.282275 14.4991 0.236464 14.6359C0.0272843 15.2589 0.00101053 15.4025 0.00101053 16.2971L0 16.2974ZM45.4594 42.7238C44.7456 42.9071 44.27 43.297 43.9901 43.8939C43.6946 44.5237 43.8243 45.5664 44.4792 46.1749C44.7496 46.4264 44.8477 46.4503 45.0659 46.5683L46.1576 46.7294L46.7027 46.6191C47.3989 46.3592 47.8395 45.8916 48.016 45.1946C48.0497 45.0607 48.0851 44.8331 48.0787 44.6288C48.0389 43.3972 46.7525 42.3911 45.4594 42.7231V42.7238ZM27.0603 42.7474C26.5554 42.8654 26.6457 42.8295 26.2879 43.0878C26.2202 43.1367 26.2047 43.1473 26.1303 43.2107C25.2828 43.9291 25.1545 45.311 26.0781 46.149C26.2478 46.3029 26.5069 46.5286 26.714 46.591C26.7369 46.5981 26.8272 46.6165 26.9101 46.6382C26.9842 46.6576 27.065 46.6841 27.1334 46.7012C27.3365 46.752 27.4191 46.7491 27.5481 46.7391L27.732 46.7352C27.8239 46.7348 27.8883 46.7374 27.9799 46.7229C28.2406 46.6805 28.7314 46.4445 28.9493 46.2534C29.5452 45.7313 29.4209 45.7219 29.6294 45.2285C30.0865 44.147 28.9278 42.3119 27.06 42.748L27.0603 42.7474ZM18.9906 42.651C17.6614 42.8366 16.6717 43.8092 17.017 45.2026C17.2191 46.0181 17.6122 46.1768 17.9622 46.4277C18.1407 46.5557 18.5264 46.73 18.711 46.7326C18.7164 46.7326 18.7319 46.7313 18.7376 46.7313L18.8491 46.7323C18.9444 46.7349 18.9993 46.7374 19.1021 46.7355L19.8923 46.6113C19.899 46.6084 19.9135 46.6007 19.9196 46.5978L20.2002 46.4629C20.3467 46.3883 20.6872 46.0588 20.7832 45.9414C20.8991 45.7995 20.9247 45.7125 20.9944 45.6029C21.0834 45.4636 20.9975 45.6327 21.0709 45.4794C21.2194 45.1697 21.1895 44.8402 21.1834 44.5078C21.1656 43.4936 20.2598 42.8078 19.255 42.6374L18.9895 42.651H18.9906ZM36.3134 42.6517C35.891 42.6691 35.6357 42.662 35.2887 42.7955C34.5719 43.071 34.1027 43.6339 33.9488 44.3481L33.9478 44.6323C33.9094 44.987 33.9902 45.3271 34.1623 45.6485L34.2341 45.7898C34.2603 45.8389 34.3038 45.9049 34.354 45.9595L35.121 46.5476C35.6993 46.8118 36.1935 46.7885 36.7904 46.6155L37.0939 46.5014C37.7376 46.1742 37.9744 45.6905 38.161 45.0536C38.4955 43.9107 37.1673 42.6164 36.3141 42.6514L36.3134 42.6517ZM48.0857 36.3754V20.4805C48.0857 19.6603 47.8281 18.9997 47.1257 18.5953L46.8377 18.4278C46.221 18.1125 45.491 18.2516 44.9204 18.5028L44.8349 18.5367C44.7702 18.5694 44.6819 18.6467 44.6038 18.7142C44.4815 18.82 44.3124 18.9654 44.2043 19.121L43.9513 19.5513C43.7886 19.9318 43.8563 21.5947 43.8563 22.0564C43.8567 24.2294 43.8563 26.4053 43.8567 28.5537C43.8567 29.0678 43.8078 36.8103 43.8937 37.1068L43.9459 37.2503C43.9493 37.2584 43.9557 37.2739 43.9587 37.2817L44.3208 37.8556C44.3784 37.9277 44.3535 37.908 44.4158 37.9801C44.4418 38.0105 44.4596 38.0276 44.4795 38.0438C45.0067 38.4715 45.1043 38.5071 45.7511 38.573C46.0522 38.6037 46.4494 38.5976 46.7993 38.4479C47.1645 38.2921 47.219 38.2167 47.4346 38.0024L47.4929 37.9468C47.9129 37.5562 48.0857 37.11 48.0857 36.3758V36.3754ZM16.9506 20.4805V36.3754C16.9506 37.1782 17.2171 37.8077 17.8642 38.2462C18.6291 38.7648 19.7323 38.7321 20.4747 38.1168L20.9661 37.5054C21.2656 36.9351 21.1885 36.4123 21.1885 35.7152V21.1217C21.1885 20.0033 21.3124 19.4546 20.3696 18.6586L19.6013 18.2968L18.7814 18.2648C18.1545 18.2561 16.951 18.9826 16.951 20.4802L16.9506 20.4805ZM35.7226 18.27L35.1725 18.4203C34.5955 18.6525 34.1034 19.2083 33.9909 19.8242C33.9747 19.9128 33.968 19.9907 33.9565 20.055C33.941 20.1407 33.9333 20.1388 33.9269 20.2173L33.9424 21.4534C33.9265 21.5633 33.9471 21.3632 33.9286 21.5258C33.9144 21.648 33.9312 21.7172 33.9424 21.7938C33.9437 21.8032 33.9481 21.8278 33.9484 21.8365C33.9484 21.8397 33.9484 21.8536 33.9484 21.8569L33.9245 23.3658C33.9235 23.3852 33.9235 23.4628 33.9286 23.5061C33.9471 23.6687 33.9265 23.4686 33.9424 23.5785L33.94 24.1776C33.9151 24.3319 33.9427 24.3209 33.9484 24.4576L33.9464 24.4987C33.9454 24.5078 33.9336 24.5575 33.9323 24.5676L33.9488 26.6885C33.9488 26.6918 33.9488 26.7057 33.9488 26.7089V27.1551C33.9484 27.1638 33.944 27.1884 33.9427 27.1978L33.9488 28.4936C33.9488 28.4968 33.9471 28.5111 33.9467 28.5143C33.9171 28.8008 33.9821 29.1648 33.9373 29.4516C33.9259 29.5256 33.9195 29.631 33.9323 29.7222L33.9488 29.8321C33.9471 29.879 33.9302 29.9282 33.9265 29.9741L33.9488 30.7242C33.9484 30.7332 33.944 30.7575 33.9427 30.7669L33.9289 31.2858C33.9131 31.4229 33.9366 31.4765 33.9467 31.5758L33.9238 31.8157C33.9218 31.9563 33.9137 31.8225 33.9323 31.9531C33.9336 31.9635 33.9457 32.0129 33.9467 32.022V33.8128C33.9461 33.8199 33.9272 33.9137 33.9248 33.9625L33.9467 35.7033C33.9471 35.7065 33.9484 35.7207 33.9488 35.724L33.9427 36.1275C33.9777 36.3706 33.9006 36.6195 33.9333 36.8582L34.197 37.5394C34.9495 39.2006 37.7359 38.8417 38.1236 37.0392C38.2759 36.3321 38.1832 35.7058 38.2007 35.1145C38.3038 31.6563 38.128 28.2101 38.2092 24.7506C38.2149 24.5132 38.2085 24.4256 38.2098 24.2611C38.2115 24.0263 38.2145 24.0066 38.2119 23.7751C38.2044 23.1492 38.2236 22.5601 38.2078 21.8986C38.1967 21.4181 38.2998 20.4728 38.1711 19.9862C38.0128 19.3871 37.7318 18.9047 37.1818 18.5448C36.6822 18.2179 36.2026 18.2639 35.7297 18.2687C35.7293 18.2687 35.7246 18.2687 35.7222 18.2697L35.7226 18.27ZM27.0603 18.3282L26.7127 18.4161C25.8945 18.6974 25.4148 19.4268 25.4162 20.7036C25.4175 22.0981 25.4165 23.4919 25.4165 24.8864C25.4162 27.6937 25.4169 30.5008 25.4165 33.3078C25.4162 34.8248 25.0945 37.0612 25.9757 37.9419C26.2283 38.1944 26.4031 38.3095 26.7278 38.4479L26.7861 38.4728C27.0991 38.6089 27.4686 38.5876 27.829 38.5688C28.5569 38.5313 29.1915 38.0408 29.4943 37.4689C29.8511 36.7948 29.7103 35.2348 29.7106 34.5212C29.7109 31.7006 29.7099 28.8855 29.7106 26.0998L29.7109 20.3308C29.7106 20.2985 29.7072 20.1213 29.6847 19.9942L29.5893 19.6997C29.4458 19.3162 29.4253 19.1992 29.1285 18.9102L28.3356 18.3932C27.962 18.3049 27.4009 18.1727 27.061 18.3285L27.0603 18.3282ZM52.298 20.4805V44.5182C52.298 45.2524 52.5779 45.9941 53.1717 46.3637C53.2593 46.418 53.2637 46.4125 53.361 46.4649L53.7461 46.6272C54.192 46.7497 54.0465 46.7235 54.5703 46.7316C54.8283 46.7355 54.7643 46.7707 55.113 46.6459C55.1753 46.6236 55.3124 46.5748 55.3131 46.5745C55.3252 46.5693 55.4222 46.5163 55.4663 46.4911C55.5637 46.4355 55.6014 46.419 55.6869 46.3643C56.3327 45.9518 56.5648 45.3536 56.5648 44.5179V20.4802C56.5648 19.539 56.2872 18.9761 55.502 18.528C55.056 18.2736 54.5717 18.2215 54.0664 18.2658C53.8576 18.2842 53.4884 18.4637 53.2819 18.5729C52.8275 18.8141 52.3839 19.4278 52.3485 19.9593C52.3404 20.0815 52.298 20.25 52.298 20.4802V20.4805ZM8.47195 20.4805V44.5182C8.47195 45.3281 8.69797 45.9676 9.38547 46.3866L9.75128 46.5861C10.9346 47.0417 12.1863 46.5328 12.6357 45.3213C12.6963 45.1584 12.6791 45.1186 12.6892 45.0112C12.697 44.9269 12.7387 44.7228 12.7387 44.5182C12.7387 41.6035 12.8226 21.109 12.6923 20.0169C12.5643 18.9435 11.6561 18.2729 10.6264 18.271C10.4192 18.2706 10.0315 18.2758 9.70917 18.4271C9.16854 18.6809 8.76736 19.099 8.56828 19.6396C8.53999 19.7155 8.47195 20.132 8.47195 20.4808V20.4805ZM4.2604 16.4093V48.5897C4.2604 48.8105 4.28364 49.13 4.34494 49.3398L4.9681 50.2952C5.04423 50.3515 5.12911 50.3867 5.24802 50.4727C5.84962 50.9095 6.63581 50.8067 7.39573 50.8067H58.4545C58.9506 50.807 58.7913 50.8119 59.2437 50.7136C59.2565 50.711 59.3488 50.6961 59.3535 50.6952C59.5735 50.6476 60.0962 50.356 60.2347 50.1339C60.5739 49.591 60.776 49.5241 60.776 48.5897V16.4093C60.776 16.1409 60.7581 15.8619 60.6894 15.6715L60.5159 15.2712C60.5102 15.2589 60.4954 15.2282 60.489 15.2166C59.8453 14.0494 58.4598 14.192 57.5244 14.1923H6.46571C6.2919 14.1923 6.23059 14.182 5.94259 14.2483C5.66166 14.3129 5.64785 14.2851 5.42554 14.4161C4.89905 14.7258 4.96911 14.6498 4.74174 14.9647C4.64574 15.0976 4.55311 15.1642 4.45913 15.3815C4.45576 15.3889 4.4497 15.4051 4.44667 15.4125L4.41534 15.5056C4.30183 15.8383 4.2604 16.022 4.2604 16.4093Z" fill="white"/>
<path d="M90.5832 27.42H93.0232C93.6499 27.42 94.2299 27.3133 94.7632 27.1C95.3099 26.8733 95.7832 26.56 96.1832 26.16C96.5966 25.76 96.9099 25.2933 97.1232 24.76C97.3499 24.2267 97.4632 23.6467 97.4632 23.02C97.4632 22.3933 97.3499 21.8133 97.1232 21.28C96.8966 20.7333 96.5832 20.26 96.1832 19.86C95.7832 19.46 95.3099 19.1467 94.7632 18.92C94.2299 18.6933 93.6499 18.58 93.0232 18.58H90.5832V27.42ZM87.6832 30V16H93.0632C94.1166 16 95.0899 16.18 95.9832 16.54C96.8766 16.8867 97.6566 17.38 98.3232 18.02C98.9899 18.66 99.5099 19.4067 99.8832 20.26C100.27 21.1133 100.463 22.0333 100.463 23.02C100.463 24.02 100.277 24.94 99.9032 25.78C99.5299 26.62 99.0032 27.36 98.3232 28C97.6566 28.6267 96.8766 29.12 95.9832 29.48C95.0899 29.8267 94.1166 30 93.0632 30H87.6832ZM107.369 30.2C106.329 30.2 105.382 29.96 104.529 29.48C103.689 29 103.022 28.3533 102.529 27.54C102.036 26.7267 101.789 25.8133 101.789 24.8C101.789 23.7867 102.022 22.8733 102.489 22.06C102.969 21.2467 103.616 20.6 104.429 20.12C105.242 19.64 106.149 19.4 107.149 19.4C108.149 19.4 109.036 19.6467 109.809 20.14C110.582 20.6333 111.189 21.3 111.629 22.14C112.082 22.98 112.309 23.9333 112.309 25V25.72H104.589C104.709 26.1333 104.902 26.5067 105.169 26.84C105.449 27.1733 105.789 27.4333 106.189 27.62C106.602 27.8067 107.042 27.9 107.509 27.9C107.976 27.9 108.402 27.8267 108.789 27.68C109.189 27.5333 109.529 27.3267 109.809 27.06L111.609 28.7C110.969 29.22 110.309 29.6 109.629 29.84C108.962 30.08 108.209 30.2 107.369 30.2ZM104.549 23.76H109.609C109.516 23.3467 109.342 22.9867 109.089 22.68C108.849 22.36 108.556 22.1133 108.209 21.94C107.876 21.7533 107.502 21.66 107.089 21.66C106.662 21.66 106.276 21.7467 105.929 21.92C105.582 22.0933 105.289 22.34 105.049 22.66C104.822 22.9667 104.656 23.3333 104.549 23.76ZM117.985 30.2C117.025 30.2 116.139 30.08 115.325 29.84C114.512 29.5867 113.805 29.2267 113.205 28.76L114.565 26.94C115.165 27.34 115.739 27.64 116.285 27.84C116.845 28.04 117.399 28.14 117.945 28.14C118.559 28.14 119.045 28.04 119.405 27.84C119.779 27.6267 119.965 27.3533 119.965 27.02C119.965 26.7533 119.859 26.54 119.645 26.38C119.445 26.22 119.119 26.1067 118.665 26.04L116.665 25.74C115.625 25.58 114.839 25.2467 114.305 24.74C113.772 24.22 113.505 23.54 113.505 22.7C113.505 22.02 113.679 21.44 114.025 20.96C114.385 20.4667 114.885 20.0867 115.525 19.82C116.179 19.54 116.952 19.4 117.845 19.4C118.605 19.4 119.345 19.5067 120.065 19.72C120.799 19.9333 121.485 20.26 122.125 20.7L120.805 22.48C120.232 22.12 119.685 21.86 119.165 21.7C118.645 21.54 118.119 21.46 117.585 21.46C117.092 21.46 116.692 21.5533 116.385 21.74C116.092 21.9267 115.945 22.1733 115.945 22.48C115.945 22.76 116.052 22.98 116.265 23.14C116.479 23.3 116.845 23.4133 117.365 23.48L119.345 23.78C120.385 23.9267 121.179 24.26 121.725 24.78C122.272 25.2867 122.545 25.9467 122.545 26.76C122.545 27.4267 122.345 28.02 121.945 28.54C121.545 29.0467 121.005 29.4533 120.325 29.76C119.645 30.0533 118.865 30.2 117.985 30.2ZM128.987 30.2C127.96 30.2 127.034 29.9667 126.207 29.5C125.38 29.02 124.727 28.3733 124.247 27.56C123.767 26.7333 123.527 25.8133 123.527 24.8C123.527 23.7733 123.767 22.8533 124.247 22.04C124.727 21.2267 125.38 20.58 126.207 20.1C127.034 19.62 127.96 19.38 128.987 19.38C129.814 19.38 130.6 19.54 131.347 19.86C132.107 20.18 132.76 20.64 133.307 21.24L131.627 23.02C131.24 22.5933 130.834 22.28 130.407 22.08C129.994 21.8667 129.54 21.76 129.047 21.76C128.514 21.76 128.034 21.8933 127.607 22.16C127.194 22.4267 126.86 22.7867 126.607 23.24C126.367 23.6933 126.247 24.2133 126.247 24.8C126.247 25.36 126.367 25.8733 126.607 26.34C126.86 26.7933 127.207 27.1533 127.647 27.42C128.087 27.6733 128.574 27.8 129.107 27.8C129.574 27.8 130.007 27.7067 130.407 27.52C130.82 27.32 131.214 27.0267 131.587 26.64L133.227 28.36C132.694 28.9333 132.054 29.3867 131.307 29.72C130.56 30.04 129.787 30.2 128.987 30.2ZM139.439 30.2C138.399 30.2 137.459 29.96 136.619 29.48C135.779 29 135.112 28.3533 134.619 27.54C134.125 26.7267 133.879 25.8133 133.879 24.8C133.879 23.7867 134.119 22.8733 134.599 22.06C135.092 21.2333 135.759 20.58 136.599 20.1C137.452 19.62 138.399 19.38 139.439 19.38C140.479 19.38 141.419 19.62 142.259 20.1C143.112 20.58 143.779 21.2333 144.259 22.06C144.752 22.8733 144.999 23.7867 144.999 24.8C144.999 25.8133 144.752 26.7267 144.259 27.54C143.779 28.3533 143.119 29 142.279 29.48C141.439 29.96 140.492 30.2 139.439 30.2ZM139.439 27.82C139.985 27.82 140.472 27.6867 140.899 27.42C141.339 27.1533 141.685 26.7933 141.939 26.34C142.205 25.8733 142.339 25.36 142.339 24.8C142.339 24.2267 142.205 23.7133 141.939 23.26C141.685 22.8067 141.339 22.4467 140.899 22.18C140.472 21.9 139.985 21.76 139.439 21.76C138.905 21.76 138.419 21.9 137.979 22.18C137.539 22.4467 137.192 22.8067 136.939 23.26C136.685 23.7133 136.559 24.2267 136.559 24.8C136.559 25.36 136.685 25.8733 136.939 26.34C137.192 26.7933 137.539 27.1533 137.979 27.42C138.419 27.6867 138.905 27.82 139.439 27.82ZM146.683 30V19.58H149.423V20.44C150.21 19.7333 151.183 19.38 152.343 19.38C153.156 19.38 153.87 19.56 154.483 19.92C155.11 20.2667 155.596 20.7533 155.943 21.38C156.29 21.9933 156.463 22.7133 156.463 23.54V30H153.723V23.94C153.723 23.26 153.53 22.7267 153.143 22.34C152.756 21.94 152.23 21.74 151.563 21.74C151.096 21.74 150.683 21.8333 150.323 22.02C149.963 22.1933 149.663 22.4467 149.423 22.78V30H146.683ZM163.185 30.16C162.025 30.16 161.145 29.9 160.545 29.38C159.959 28.8467 159.665 28.0733 159.665 27.06V21.86H157.525V19.58H159.665V16.92L162.405 16.3V19.58H165.385V21.86H162.405V26.5C162.405 26.98 162.512 27.3267 162.725 27.54C162.939 27.74 163.312 27.84 163.845 27.84C164.112 27.84 164.352 27.8267 164.565 27.8C164.792 27.76 165.039 27.6933 165.305 27.6V29.86C165.025 29.9533 164.672 30.0267 164.245 30.08C163.832 30.1333 163.479 30.16 163.185 30.16ZM171.685 30.2C170.645 30.2 169.705 29.96 168.865 29.48C168.025 29 167.358 28.3533 166.865 27.54C166.371 26.7267 166.125 25.8133 166.125 24.8C166.125 23.7867 166.365 22.8733 166.845 22.06C167.338 21.2333 168.005 20.58 168.845 20.1C169.698 19.62 170.645 19.38 171.685 19.38C172.725 19.38 173.665 19.62 174.505 20.1C175.358 20.58 176.025 21.2333 176.505 22.06C176.998 22.8733 177.245 23.7867 177.245 24.8C177.245 25.8133 176.998 26.7267 176.505 27.54C176.025 28.3533 175.365 29 174.525 29.48C173.685 29.96 172.738 30.2 171.685 30.2ZM171.685 27.82C172.231 27.82 172.718 27.6867 173.145 27.42C173.585 27.1533 173.931 26.7933 174.185 26.34C174.451 25.8733 174.585 25.36 174.585 24.8C174.585 24.2267 174.451 23.7133 174.185 23.26C173.931 22.8067 173.585 22.4467 173.145 22.18C172.718 21.9 172.231 21.76 171.685 21.76C171.151 21.76 170.665 21.9 170.225 22.18C169.785 22.4467 169.438 22.8067 169.185 23.26C168.931 23.7133 168.805 24.2267 168.805 24.8C168.805 25.36 168.931 25.8733 169.185 26.34C169.438 26.7933 169.785 27.1533 170.225 27.42C170.665 27.6867 171.151 27.82 171.685 27.82ZM187.772 30.14C186.786 30.14 185.892 29.9 185.092 29.42C184.292 28.94 183.652 28.3 183.172 27.5C182.706 26.6867 182.472 25.78 182.472 24.78C182.472 23.78 182.706 22.88 183.172 22.08C183.652 21.2667 184.299 20.6267 185.112 20.16C185.926 19.68 186.839 19.44 187.852 19.44C188.372 19.44 188.872 19.5133 189.352 19.66C189.832 19.7933 190.279 19.9933 190.692 20.26V16L193.432 15.54V30H190.732V29.14C189.879 29.8067 188.892 30.14 187.772 30.14ZM188.212 27.8C188.719 27.8 189.179 27.72 189.592 27.56C190.019 27.3867 190.386 27.1333 190.692 26.8V22.74C190.386 22.4333 190.019 22.1933 189.592 22.02C189.166 21.8467 188.706 21.76 188.212 21.76C187.639 21.76 187.119 21.8933 186.652 22.16C186.199 22.4133 185.839 22.7733 185.572 23.24C185.306 23.6933 185.172 24.2067 185.172 24.78C185.172 25.3533 185.306 25.8667 185.572 26.32C185.839 26.7733 186.199 27.1333 186.652 27.4C187.119 27.6667 187.639 27.8 188.212 27.8ZM200.67 30.2C199.63 30.2 198.683 29.96 197.83 29.48C196.99 29 196.323 28.3533 195.83 27.54C195.336 26.7267 195.09 25.8133 195.09 24.8C195.09 23.7867 195.323 22.8733 195.79 22.06C196.27 21.2467 196.916 20.6 197.73 20.12C198.543 19.64 199.45 19.4 200.45 19.4C201.45 19.4 202.336 19.6467 203.11 20.14C203.883 20.6333 204.49 21.3 204.93 22.14C205.383 22.98 205.61 23.9333 205.61 25V25.72H197.89C198.01 26.1333 198.203 26.5067 198.47 26.84C198.75 27.1733 199.09 27.4333 199.49 27.62C199.903 27.8067 200.343 27.9 200.81 27.9C201.276 27.9 201.703 27.8267 202.09 27.68C202.49 27.5333 202.83 27.3267 203.11 27.06L204.91 28.7C204.27 29.22 203.61 29.6 202.93 29.84C202.263 30.08 201.51 30.2 200.67 30.2ZM197.85 23.76H202.91C202.816 23.3467 202.643 22.9867 202.39 22.68C202.15 22.36 201.856 22.1133 201.51 21.94C201.176 21.7533 200.803 21.66 200.39 21.66C199.963 21.66 199.576 21.7467 199.23 21.92C198.883 22.0933 198.59 22.34 198.35 22.66C198.123 22.9667 197.956 23.3333 197.85 23.76ZM89.5832 56V44.78L86.8432 45.92V43.52L90.5832 42H92.3232V56H89.5832ZM100.236 56.22C99.0225 56.22 97.9492 55.92 97.0159 55.32C96.0959 54.7067 95.3759 53.86 94.8559 52.78C94.3492 51.6867 94.0959 50.4267 94.0959 49C94.0959 47.56 94.3492 46.3 94.8559 45.22C95.3759 44.14 96.0959 43.3 97.0159 42.7C97.9492 42.0867 99.0225 41.78 100.236 41.78C101.463 41.78 102.536 42.0867 103.456 42.7C104.389 43.3 105.109 44.14 105.616 45.22C106.136 46.3 106.396 47.56 106.396 49C106.396 50.4267 106.136 51.6867 105.616 52.78C105.109 53.86 104.389 54.7067 103.456 55.32C102.536 55.92 101.463 56.22 100.236 56.22ZM100.236 53.84C100.956 53.84 101.576 53.6467 102.096 53.26C102.616 52.8733 103.016 52.3133 103.296 51.58C103.589 50.8467 103.736 49.9867 103.736 49C103.736 48 103.589 47.14 103.296 46.42C103.016 45.6867 102.616 45.1267 102.096 44.74C101.576 44.3533 100.956 44.16 100.236 44.16C99.5292 44.16 98.9159 44.3533 98.3959 44.74C97.8759 45.1267 97.4692 45.6867 97.1759 46.42C96.8959 47.14 96.7559 48 96.7559 49C96.7559 49.9867 96.8959 50.8467 97.1759 51.58C97.4692 52.3133 97.8759 52.8733 98.3959 53.26C98.9159 53.6467 99.5292 53.84 100.236 53.84ZM110.727 49.1C109.754 49.1 108.974 48.7733 108.387 48.12C107.814 47.4533 107.527 46.5733 107.527 45.48C107.527 44.4133 107.821 43.5467 108.407 42.88C108.994 42.2133 109.767 41.88 110.727 41.88C111.674 41.88 112.441 42.2133 113.027 42.88C113.614 43.5467 113.907 44.4133 113.907 45.48C113.907 46.5733 113.614 47.4533 113.027 48.12C112.454 48.7733 111.687 49.1 110.727 49.1ZM110.727 47.64C111.207 47.64 111.581 47.4533 111.847 47.08C112.127 46.6933 112.267 46.16 112.267 45.48C112.267 44.8267 112.127 44.3067 111.847 43.92C111.567 43.5333 111.194 43.34 110.727 43.34C110.247 43.34 109.867 43.5333 109.587 43.92C109.321 44.3067 109.181 44.8267 109.167 45.48C109.181 46.16 109.321 46.6933 109.587 47.08C109.854 47.4533 110.234 47.64 110.727 47.64ZM109.947 56L117.867 42H119.907L111.987 56H109.947ZM119.327 56.1C118.354 56.1 117.574 55.7733 116.987 55.12C116.414 54.4533 116.127 53.5733 116.127 52.48C116.127 51.4133 116.421 50.5467 117.007 49.88C117.594 49.2133 118.367 48.88 119.327 48.88C120.274 48.88 121.041 49.2133 121.627 49.88C122.214 50.5467 122.507 51.4133 122.507 52.48C122.507 53.5733 122.214 54.4533 121.627 55.12C121.054 55.7733 120.287 56.1 119.327 56.1ZM119.327 54.64C119.807 54.64 120.181 54.4533 120.447 54.08C120.727 53.6933 120.867 53.16 120.867 52.48C120.867 51.8267 120.727 51.3067 120.447 50.92C120.167 50.5333 119.794 50.34 119.327 50.34C118.847 50.34 118.467 50.5333 118.187 50.92C117.921 51.3067 117.781 51.8267 117.767 52.48C117.781 53.16 117.921 53.6933 118.187 54.08C118.454 54.4533 118.834 54.64 119.327 54.64ZM128.05 56V45.58H130.79V46.44C131.577 45.7333 132.55 45.38 133.71 45.38C134.523 45.38 135.237 45.56 135.85 45.92C136.477 46.2667 136.963 46.7533 137.31 47.38C137.657 47.9933 137.83 48.7133 137.83 49.54V56H135.09V49.94C135.09 49.26 134.897 48.7267 134.51 48.34C134.123 47.94 133.597 47.74 132.93 47.74C132.463 47.74 132.05 47.8333 131.69 48.02C131.33 48.1933 131.03 48.4467 130.79 48.78V56H128.05ZM144.986 56.2C143.946 56.2 143.006 55.96 142.166 55.48C141.326 55 140.659 54.3533 140.166 53.54C139.672 52.7267 139.426 51.8133 139.426 50.8C139.426 49.7867 139.666 48.8733 140.146 48.06C140.639 47.2333 141.306 46.58 142.146 46.1C142.999 45.62 143.946 45.38 144.986 45.38C146.026 45.38 146.966 45.62 147.806 46.1C148.659 46.58 149.326 47.2333 149.806 48.06C150.299 48.8733 150.546 49.7867 150.546 50.8C150.546 51.8133 150.299 52.7267 149.806 53.54C149.326 54.3533 148.666 55 147.826 55.48C146.986 55.96 146.039 56.2 144.986 56.2ZM144.986 53.82C145.532 53.82 146.019 53.6867 146.446 53.42C146.886 53.1533 147.232 52.7933 147.486 52.34C147.752 51.8733 147.886 51.36 147.886 50.8C147.886 50.2267 147.752 49.7133 147.486 49.26C147.232 48.8067 146.886 48.4467 146.446 48.18C146.019 47.9 145.532 47.76 144.986 47.76C144.452 47.76 143.966 47.9 143.526 48.18C143.086 48.4467 142.739 48.8067 142.486 49.26C142.232 49.7133 142.106 50.2267 142.106 50.8C142.106 51.36 142.232 51.8733 142.486 52.34C142.739 52.7933 143.086 53.1533 143.526 53.42C143.966 53.6867 144.452 53.82 144.986 53.82ZM156.253 56V42L158.993 41.54V46.42C159.82 45.7667 160.793 45.44 161.913 45.44C162.9 45.44 163.793 45.68 164.593 46.16C165.393 46.64 166.027 47.2867 166.493 48.1C166.973 48.9 167.213 49.8 167.213 50.8C167.213 51.8 166.973 52.7067 166.493 53.52C166.013 54.32 165.367 54.96 164.553 55.44C163.74 55.9067 162.833 56.14 161.833 56.14C161.313 56.14 160.807 56.0667 160.313 55.92C159.82 55.7733 159.367 55.56 158.953 55.28V56H156.253ZM161.473 53.82C162.047 53.82 162.56 53.6867 163.013 53.42C163.48 53.1533 163.847 52.7933 164.113 52.34C164.38 51.8867 164.513 51.3733 164.513 50.8C164.513 50.2267 164.38 49.7133 164.113 49.26C163.847 48.7933 163.48 48.4333 163.013 48.18C162.56 47.9133 162.047 47.78 161.473 47.78C160.967 47.78 160.5 47.8667 160.073 48.04C159.66 48.2 159.3 48.4467 158.993 48.78V52.84C159.287 53.1467 159.647 53.3867 160.073 53.56C160.513 53.7333 160.98 53.82 161.473 53.82ZM173.95 56.2C172.91 56.2 171.97 55.96 171.13 55.48C170.29 55 169.624 54.3533 169.13 53.54C168.637 52.7267 168.39 51.8133 168.39 50.8C168.39 49.7867 168.63 48.8733 169.11 48.06C169.604 47.2333 170.27 46.58 171.11 46.1C171.964 45.62 172.91 45.38 173.95 45.38C174.99 45.38 175.93 45.62 176.77 46.1C177.624 46.58 178.29 47.2333 178.77 48.06C179.264 48.8733 179.51 49.7867 179.51 50.8C179.51 51.8133 179.264 52.7267 178.77 53.54C178.29 54.3533 177.63 55 176.79 55.48C175.95 55.96 175.004 56.2 173.95 56.2ZM173.95 53.82C174.497 53.82 174.984 53.6867 175.41 53.42C175.85 53.1533 176.197 52.7933 176.45 52.34C176.717 51.8733 176.85 51.36 176.85 50.8C176.85 50.2267 176.717 49.7133 176.45 49.26C176.197 48.8067 175.85 48.4467 175.41 48.18C174.984 47.9 174.497 47.76 173.95 47.76C173.417 47.76 172.93 47.9 172.49 48.18C172.05 48.4467 171.704 48.8067 171.45 49.26C171.197 49.7133 171.07 50.2267 171.07 50.8C171.07 51.36 171.197 51.8733 171.45 52.34C171.704 52.7933 172.05 53.1533 172.49 53.42C172.93 53.6867 173.417 53.82 173.95 53.82ZM181.195 56V42L183.935 41.54V56H181.195ZM191.177 56.2C190.137 56.2 189.191 55.96 188.337 55.48C187.497 55 186.831 54.3533 186.337 53.54C185.844 52.7267 185.597 51.8133 185.597 50.8C185.597 49.7867 185.831 48.8733 186.297 48.06C186.777 47.2467 187.424 46.6 188.237 46.12C189.051 45.64 189.957 45.4 190.957 45.4C191.957 45.4 192.844 45.6467 193.617 46.14C194.391 46.6333 194.997 47.3 195.437 48.14C195.891 48.98 196.117 49.9333 196.117 51V51.72H188.397C188.517 52.1333 188.711 52.5067 188.977 52.84C189.257 53.1733 189.597 53.4333 189.997 53.62C190.411 53.8067 190.851 53.9 191.317 53.9C191.784 53.9 192.211 53.8267 192.597 53.68C192.997 53.5333 193.337 53.3267 193.617 53.06L195.417 54.7C194.777 55.22 194.117 55.6 193.437 55.84C192.771 56.08 192.017 56.2 191.177 56.2ZM188.357 49.76H193.417C193.324 49.3467 193.151 48.9867 192.897 48.68C192.657 48.36 192.364 48.1133 192.017 47.94C191.684 47.7533 191.311 47.66 190.897 47.66C190.471 47.66 190.084 47.7467 189.737 47.92C189.391 48.0933 189.097 48.34 188.857 48.66C188.631 48.9667 188.464 49.3333 188.357 49.76ZM202.443 56.16C201.283 56.16 200.403 55.9 199.803 55.38C199.217 54.8467 198.923 54.0733 198.923 53.06V47.86H196.783V45.58H198.923V42.92L201.663 42.3V45.58H204.643V47.86H201.663V52.5C201.663 52.98 201.77 53.3267 201.983 53.54C202.197 53.74 202.57 53.84 203.103 53.84C203.37 53.84 203.61 53.8267 203.823 53.8C204.05 53.76 204.297 53.6933 204.563 53.6V55.86C204.283 55.9533 203.93 56.0267 203.503 56.08C203.09 56.1333 202.737 56.16 202.443 56.16ZM210.943 56.2C209.903 56.2 208.963 55.96 208.123 55.48C207.283 55 206.616 54.3533 206.123 53.54C205.629 52.7267 205.383 51.8133 205.383 50.8C205.383 49.7867 205.623 48.8733 206.103 48.06C206.596 47.2333 207.263 46.58 208.103 46.1C208.956 45.62 209.903 45.38 210.943 45.38C211.983 45.38 212.923 45.62 213.763 46.1C214.616 46.58 215.283 47.2333 215.763 48.06C216.256 48.8733 216.503 49.7867 216.503 50.8C216.503 51.8133 216.256 52.7267 215.763 53.54C215.283 54.3533 214.623 55 213.783 55.48C212.943 55.96 211.996 56.2 210.943 56.2ZM210.943 53.82C211.489 53.82 211.976 53.6867 212.403 53.42C212.843 53.1533 213.189 52.7933 213.443 52.34C213.709 51.8733 213.843 51.36 213.843 50.8C213.843 50.2267 213.709 49.7133 213.443 49.26C213.189 48.8067 212.843 48.4467 212.403 48.18C211.976 47.9 211.489 47.76 210.943 47.76C210.409 47.76 209.923 47.9 209.483 48.18C209.043 48.4467 208.696 48.8067 208.443 49.26C208.189 49.7133 208.063 50.2267 208.063 50.8C208.063 51.36 208.189 51.8733 208.443 52.34C208.696 52.7933 209.043 53.1533 209.483 53.42C209.923 53.6867 210.409 53.82 210.943 53.82Z" fill="#F9F9F9"/>
</svg>
