<svg width="65" height="65" viewBox="0 0 65 65" fill="none" xmlns="http://www.w3.org/2000/svg">
<path fill-rule="evenodd" clip-rule="evenodd" d="M0 16.2974V48.7566C0 49.7899 0.247917 50.7517 0.735666 51.6179C0.841098 51.8054 0.957983 52.0398 1.0971 52.2196L1.57845 52.7631C1.87622 53.1187 2.21171 53.4408 2.64725 53.7428L3.95555 54.4476C4.15901 54.5139 4.5164 54.6209 4.66831 54.6597C5.99581 54.9988 6.56036 54.9009 7.86091 54.9012H58.1931C58.4969 54.9012 58.8944 54.9319 59.5313 54.842C60.525 54.7017 61.5676 54.3137 62.3905 53.7424C62.8951 53.3923 63.5566 52.7256 63.9157 52.2532C64.4509 51.5487 64.5584 51.0741 64.8019 50.3615C64.9818 49.8345 65 49.4061 65 48.6444V16.2968C64.9997 14.9595 64.9181 15.1025 64.6615 14.2185C64.6315 14.115 64.6453 14.1386 64.6224 14.0514C64.5456 13.7597 64.0225 12.8583 63.8369 12.6517C63.8291 12.643 63.8173 12.631 63.8096 12.6226L63.7008 12.503C63.6105 12.3982 63.558 12.3416 63.4603 12.234C63.2127 11.9611 63.3225 11.9611 62.956 11.716C62.5865 11.4693 62.0142 10.8621 61.0788 10.5514C59.4161 9.99921 59.1295 10.0956 57.263 10.0959H7.77435C7.46512 10.0959 5.76339 10.0348 5.04692 10.2197C4.42444 10.3804 3.71572 10.6416 3.13871 10.9472C3.12793 10.9527 3.11378 10.9611 3.10334 10.9669L2.11605 11.6931C1.74283 11.9495 1.86847 11.8977 1.60708 12.2052C1.00548 12.9142 1.2864 12.4403 0.738698 13.3766C0.620129 13.5796 0.504928 13.7406 0.425096 14.0187C0.382317 14.1677 0.396465 14.169 0.337854 14.3339C0.278569 14.5011 0.282275 14.4991 0.236464 14.6359C0.0272843 15.2589 0.00101053 15.4025 0.00101053 16.2971L0 16.2974ZM45.4594 42.7238C44.7456 42.9071 44.27 43.297 43.9901 43.8939C43.6946 44.5237 43.8243 45.5664 44.4792 46.1749C44.7496 46.4264 44.8477 46.4503 45.0659 46.5683L46.1576 46.7294L46.7027 46.6191C47.3989 46.3592 47.8395 45.8916 48.016 45.1946C48.0497 45.0607 48.0851 44.8331 48.0787 44.6288C48.0389 43.3972 46.7525 42.3911 45.4594 42.7231V42.7238ZM27.0603 42.7474C26.5554 42.8654 26.6457 42.8295 26.2879 43.0878C26.2202 43.1367 26.2047 43.1473 26.1303 43.2107C25.2828 43.9291 25.1545 45.311 26.0781 46.149C26.2478 46.3029 26.5069 46.5286 26.714 46.591C26.7369 46.5981 26.8272 46.6165 26.9101 46.6382C26.9842 46.6576 27.065 46.6841 27.1334 46.7012C27.3365 46.752 27.4191 46.7491 27.5481 46.7391L27.732 46.7352C27.8239 46.7348 27.8883 46.7374 27.9799 46.7229C28.2406 46.6805 28.7314 46.4445 28.9493 46.2534C29.5452 45.7313 29.4209 45.7219 29.6294 45.2285C30.0865 44.147 28.9278 42.3119 27.06 42.748L27.0603 42.7474ZM18.9906 42.651C17.6614 42.8366 16.6717 43.8092 17.017 45.2026C17.2191 46.0181 17.6122 46.1768 17.9622 46.4277C18.1407 46.5557 18.5264 46.73 18.711 46.7326C18.7164 46.7326 18.7319 46.7313 18.7376 46.7313L18.8491 46.7323C18.9444 46.7349 18.9993 46.7374 19.1021 46.7355L19.8923 46.6113C19.899 46.6084 19.9135 46.6007 19.9196 46.5978L20.2002 46.4629C20.3467 46.3883 20.6872 46.0588 20.7832 45.9414C20.8991 45.7995 20.9247 45.7125 20.9944 45.6029C21.0834 45.4636 20.9975 45.6327 21.0709 45.4794C21.2194 45.1697 21.1895 44.8402 21.1834 44.5078C21.1656 43.4936 20.2598 42.8078 19.255 42.6374L18.9895 42.651H18.9906ZM36.3134 42.6517C35.891 42.6691 35.6357 42.662 35.2887 42.7955C34.5719 43.071 34.1027 43.6339 33.9488 44.3481L33.9478 44.6323C33.9094 44.987 33.9902 45.3271 34.1623 45.6485L34.2341 45.7898C34.2603 45.8389 34.3038 45.9049 34.354 45.9595L35.121 46.5476C35.6993 46.8118 36.1935 46.7885 36.7904 46.6155L37.0939 46.5014C37.7376 46.1742 37.9744 45.6905 38.161 45.0536C38.4955 43.9107 37.1673 42.6164 36.3141 42.6514L36.3134 42.6517ZM48.0857 36.3754V20.4805C48.0857 19.6603 47.8281 18.9997 47.1257 18.5953L46.8377 18.4278C46.221 18.1125 45.491 18.2516 44.9204 18.5028L44.8349 18.5367C44.7702 18.5694 44.6819 18.6467 44.6038 18.7142C44.4815 18.82 44.3124 18.9654 44.2043 19.121L43.9513 19.5513C43.7886 19.9318 43.8563 21.5947 43.8563 22.0564C43.8567 24.2294 43.8563 26.4053 43.8567 28.5537C43.8567 29.0678 43.8078 36.8103 43.8937 37.1068L43.9459 37.2503C43.9493 37.2584 43.9557 37.2739 43.9587 37.2817L44.3208 37.8556C44.3784 37.9277 44.3535 37.908 44.4158 37.9801C44.4418 38.0105 44.4596 38.0276 44.4795 38.0438C45.0067 38.4715 45.1043 38.5071 45.7511 38.573C46.0522 38.6037 46.4494 38.5976 46.7993 38.4479C47.1645 38.2921 47.219 38.2167 47.4346 38.0024L47.4929 37.9468C47.9129 37.5562 48.0857 37.11 48.0857 36.3758V36.3754ZM16.9506 20.4805V36.3754C16.9506 37.1782 17.2171 37.8077 17.8642 38.2462C18.6291 38.7648 19.7323 38.7321 20.4747 38.1168L20.9661 37.5054C21.2656 36.9351 21.1885 36.4123 21.1885 35.7152V21.1217C21.1885 20.0033 21.3124 19.4546 20.3696 18.6586L19.6013 18.2968L18.7814 18.2648C18.1545 18.2561 16.951 18.9826 16.951 20.4802L16.9506 20.4805ZM35.7226 18.27L35.1725 18.4203C34.5955 18.6525 34.1034 19.2083 33.9909 19.8242C33.9747 19.9128 33.968 19.9907 33.9565 20.055C33.941 20.1407 33.9333 20.1388 33.9269 20.2173L33.9424 21.4534C33.9265 21.5633 33.9471 21.3632 33.9286 21.5258C33.9144 21.648 33.9312 21.7172 33.9424 21.7938C33.9437 21.8032 33.9481 21.8278 33.9484 21.8365C33.9484 21.8397 33.9484 21.8536 33.9484 21.8569L33.9245 23.3658C33.9235 23.3852 33.9235 23.4628 33.9286 23.5061C33.9471 23.6687 33.9265 23.4686 33.9424 23.5785L33.94 24.1776C33.9151 24.3319 33.9427 24.3209 33.9484 24.4576L33.9464 24.4987C33.9454 24.5078 33.9336 24.5575 33.9323 24.5676L33.9488 26.6885C33.9488 26.6918 33.9488 26.7057 33.9488 26.7089V27.1551C33.9484 27.1638 33.944 27.1884 33.9427 27.1978L33.9488 28.4936C33.9488 28.4968 33.9471 28.5111 33.9467 28.5143C33.9171 28.8008 33.9821 29.1648 33.9373 29.4516C33.9259 29.5256 33.9195 29.631 33.9323 29.7222L33.9488 29.8321C33.9471 29.879 33.9302 29.9282 33.9265 29.9741L33.9488 30.7242C33.9484 30.7332 33.944 30.7575 33.9427 30.7669L33.9289 31.2858C33.9131 31.4229 33.9366 31.4765 33.9467 31.5758L33.9238 31.8157C33.9218 31.9563 33.9137 31.8225 33.9323 31.9531C33.9336 31.9635 33.9457 32.0129 33.9467 32.022V33.8128C33.9461 33.8199 33.9272 33.9137 33.9248 33.9625L33.9467 35.7033C33.9471 35.7065 33.9484 35.7207 33.9488 35.724L33.9427 36.1275C33.9777 36.3706 33.9006 36.6195 33.9333 36.8582L34.197 37.5394C34.9495 39.2006 37.7359 38.8417 38.1236 37.0392C38.2759 36.3321 38.1832 35.7058 38.2007 35.1145C38.3038 31.6563 38.128 28.2101 38.2092 24.7506C38.2149 24.5132 38.2085 24.4256 38.2098 24.2611C38.2115 24.0263 38.2145 24.0066 38.2119 23.7751C38.2044 23.1492 38.2236 22.5601 38.2078 21.8986C38.1967 21.4181 38.2998 20.4728 38.1711 19.9862C38.0128 19.3871 37.7318 18.9047 37.1818 18.5448C36.6822 18.2179 36.2026 18.2639 35.7297 18.2687C35.7293 18.2687 35.7246 18.2687 35.7222 18.2697L35.7226 18.27ZM27.0603 18.3282L26.7127 18.4161C25.8945 18.6974 25.4148 19.4268 25.4162 20.7036C25.4175 22.0981 25.4165 23.4919 25.4165 24.8864C25.4162 27.6937 25.4169 30.5008 25.4165 33.3078C25.4162 34.8248 25.0945 37.0612 25.9757 37.9419C26.2283 38.1944 26.4031 38.3095 26.7278 38.4479L26.7861 38.4728C27.0991 38.6089 27.4686 38.5876 27.829 38.5688C28.5569 38.5313 29.1915 38.0408 29.4943 37.4689C29.8511 36.7948 29.7103 35.2348 29.7106 34.5212C29.7109 31.7006 29.7099 28.8855 29.7106 26.0998L29.7109 20.3308C29.7106 20.2985 29.7072 20.1213 29.6847 19.9942L29.5893 19.6997C29.4458 19.3162 29.4253 19.1992 29.1285 18.9102L28.3356 18.3932C27.962 18.3049 27.4009 18.1727 27.061 18.3285L27.0603 18.3282ZM52.298 20.4805V44.5182C52.298 45.2524 52.5779 45.9941 53.1717 46.3637C53.2593 46.418 53.2637 46.4125 53.361 46.4649L53.7461 46.6272C54.192 46.7497 54.0465 46.7235 54.5703 46.7316C54.8283 46.7355 54.7643 46.7707 55.113 46.6459C55.1753 46.6236 55.3124 46.5748 55.3131 46.5745C55.3252 46.5693 55.4222 46.5163 55.4663 46.4911C55.5637 46.4355 55.6014 46.419 55.6869 46.3643C56.3327 45.9518 56.5648 45.3536 56.5648 44.5179V20.4802C56.5648 19.539 56.2872 18.9761 55.502 18.528C55.056 18.2736 54.5717 18.2215 54.0664 18.2658C53.8576 18.2842 53.4884 18.4637 53.2819 18.5729C52.8275 18.8141 52.3839 19.4278 52.3485 19.9593C52.3404 20.0815 52.298 20.25 52.298 20.4802V20.4805ZM8.47195 20.4805V44.5182C8.47195 45.3281 8.69797 45.9676 9.38547 46.3866L9.75128 46.5861C10.9346 47.0417 12.1863 46.5328 12.6357 45.3213C12.6963 45.1584 12.6791 45.1186 12.6892 45.0112C12.697 44.9269 12.7387 44.7228 12.7387 44.5182C12.7387 41.6035 12.8226 21.109 12.6923 20.0169C12.5643 18.9435 11.6561 18.2729 10.6264 18.271C10.4192 18.2706 10.0315 18.2758 9.70917 18.4271C9.16854 18.6809 8.76736 19.099 8.56828 19.6396C8.53999 19.7155 8.47195 20.132 8.47195 20.4808V20.4805ZM4.2604 16.4093V48.5897C4.2604 48.8105 4.28364 49.13 4.34494 49.3398L4.9681 50.2952C5.04423 50.3515 5.12911 50.3867 5.24802 50.4727C5.84962 50.9095 6.63581 50.8067 7.39573 50.8067H58.4545C58.9506 50.807 58.7913 50.8119 59.2437 50.7136C59.2565 50.711 59.3488 50.6961 59.3535 50.6952C59.5735 50.6476 60.0962 50.356 60.2347 50.1339C60.5739 49.591 60.776 49.5241 60.776 48.5897V16.4093C60.776 16.1409 60.7581 15.8619 60.6894 15.6715L60.5159 15.2712C60.5102 15.2589 60.4954 15.2282 60.489 15.2166C59.8453 14.0494 58.4598 14.192 57.5244 14.1923H6.46571C6.2919 14.1923 6.23059 14.182 5.94259 14.2483C5.66166 14.3129 5.64785 14.2851 5.42554 14.4161C4.89905 14.7258 4.96911 14.6498 4.74174 14.9647C4.64574 15.0976 4.55311 15.1642 4.45913 15.3815C4.45576 15.3889 4.4497 15.4051 4.44667 15.4125L4.41534 15.5056C4.30183 15.8383 4.2604 16.022 4.2604 16.4093Z" fill="white"/>
</svg>
