<svg width="65" height="65" viewBox="0 0 65 65" fill="none" xmlns="http://www.w3.org/2000/svg">
<path fill-rule="evenodd" clip-rule="evenodd" d="M49.3171 50.6122C46.8227 50.6122 45.0869 48.8537 45.0869 47.2798C45.0869 45.3041 45.4145 44.4189 47.3348 43.3382C49.5002 42.1197 53.1344 43.8072 53.1344 46.6915C53.1344 48.2594 52.2672 49.5623 50.9365 50.1904C50.4736 50.4087 49.9679 50.6122 49.3171 50.6122ZM21.1507 50.6122C17.4043 50.6122 15.8312 46.5192 18.1181 44.2026L18.3257 44.0075C18.7333 43.6465 18.727 43.622 19.2218 43.3887C20.4083 42.8297 21.7198 42.8041 22.9076 43.3564C26.5451 45.0478 25.4184 50.6122 21.1509 50.6122H21.1507ZM44.0553 19.5413H51.4838C51.6089 19.9867 55.3622 26.6913 55.5076 27.2845H44.0553V19.5413ZM5.7779 13.4645C5.7779 14.1774 5.77771 14.5239 6.46946 15.1598C6.80242 15.4658 7.23259 15.7188 7.8413 15.7188H39.9284V29.5391C39.9284 30.0608 40.524 30.7427 40.897 30.9712C41.7897 31.5182 46.5346 31.3033 47.9758 31.3033C51.3118 31.3033 54.6477 31.3033 57.9838 31.3033C58.3569 31.9731 60.8727 34.7019 60.8727 35.028V44.8296H57.0553C56.9507 43.6343 55.3647 41.4994 54.2719 40.711C50.8232 38.2226 46.4928 38.3419 43.3437 41.2129C42.4384 42.0382 41.2678 43.6729 41.1666 44.8296H29.0953C28.9726 44.5866 28.7252 43.6901 28.3524 43.085C27.3805 41.507 26.0292 40.1678 24.1564 39.5239C17.6271 37.2793 13.2596 42.5696 13.2066 44.8294H8.04796C5.95586 44.8294 4.94014 47.1382 6.56572 48.3938C7.13883 48.8364 7.48442 48.8541 8.45995 48.8486C10.0411 48.8401 11.625 48.8479 13.2066 48.8479C13.2668 49.5352 13.9077 50.6313 14.2366 51.1039C14.507 51.4928 14.6984 51.6644 15.0038 52.0412C15.29 52.3946 15.5759 52.552 15.9156 52.8413C17.6807 54.344 20.2198 54.8364 22.5549 54.4943C24.6414 54.1887 26.6782 52.8527 27.8731 51.2152C28.22 50.7398 28.9759 49.5489 28.9923 48.8477H41.1668C41.3855 49.739 41.7698 50.4591 42.2583 51.1434C42.9434 52.1025 43.9147 53.0056 44.9838 53.5528C45.1826 53.6546 45.3367 53.7591 45.5047 53.842C46.967 54.5639 48.9822 54.7677 50.6881 54.4627C51.3033 54.3527 51.5106 54.2587 52.0395 54.0802C52.9532 53.7717 53.5782 53.3343 54.2711 52.8676C55.159 52.2697 56.0813 51.0363 56.5762 50.0586C56.7886 49.6389 56.8647 49.2253 57.0555 48.8477C58.7064 48.8477 60.3572 48.8459 62.008 48.8477C62.9864 48.8488 63.4909 48.9081 64.1191 48.5009C64.5967 48.1911 65.0001 47.6955 65.0001 46.9855V34.0473C65.0001 33.2076 64.1554 32.4573 63.5555 31.6949C60.3915 27.6723 61.6226 29.8921 58.9815 24.8665L55.681 18.6906C55.1441 17.79 54.4575 15.6205 53.0317 15.6205H44.0555V13.5621C44.0555 12.4812 42.9638 11.6998 41.7857 11.6998H8.04777C7.11548 11.6998 6.45205 12.0643 6.05039 12.7429C5.92218 12.9595 5.7779 13.1889 5.7779 13.4643V13.4645Z" fill="white"/>
<path fill-rule="evenodd" clip-rule="evenodd" d="M3.30151 21.6977C3.30151 22.6978 4.21409 23.658 5.26177 23.658H23.0076C24.5735 23.658 25.6116 21.7074 24.4736 20.403C24.2654 20.1645 23.6347 19.7373 23.2141 19.7373H5.05549C4.37579 19.7373 3.30151 20.5179 3.30151 21.6977Z" fill="white"/>
<path fill-rule="evenodd" clip-rule="evenodd" d="M0 29.1468V29.6369C0 30.3809 0.98453 31.3032 1.75397 31.3032H19.8094C20.3986 31.3032 21.5634 30.586 21.5634 29.5389C21.5634 28.6516 21.5611 28.498 20.9224 27.8935C20.5377 27.5294 20.2337 27.3825 19.4998 27.3825H2.0634C1.32955 27.3825 1.02567 27.5294 0.640853 27.8935C0.280337 28.2347 0 28.4894 0 29.1468H0Z" fill="white"/>
<path fill-rule="evenodd" clip-rule="evenodd" d="M3.30151 36.9881C3.30151 38.0397 4.16147 38.9485 5.26177 38.9485H14.9601C16.3459 38.9485 17.7168 37.2433 16.3666 35.6521C16.1651 35.4147 15.4569 35.0278 15.0634 35.0278H5.26196C4.14846 35.0278 3.3017 35.9957 3.3017 36.9881H3.30151Z" fill="white"/>
</svg>
