<svg width="309" height="71" viewBox="0 0 309 71" fill="none" xmlns="http://www.w3.org/2000/svg">
<path fill-rule="evenodd" clip-rule="evenodd" d="M49.3171 50.6122C46.8227 50.6122 45.0869 48.8537 45.0869 47.2798C45.0869 45.3041 45.4145 44.4189 47.3348 43.3382C49.5002 42.1197 53.1344 43.8072 53.1344 46.6915C53.1344 48.2594 52.2672 49.5623 50.9365 50.1904C50.4736 50.4087 49.9679 50.6122 49.3171 50.6122ZM21.1507 50.6122C17.4043 50.6122 15.8312 46.5192 18.1181 44.2026L18.3257 44.0075C18.7333 43.6465 18.727 43.622 19.2218 43.3887C20.4083 42.8297 21.7198 42.8041 22.9076 43.3564C26.5451 45.0478 25.4184 50.6122 21.1509 50.6122H21.1507ZM44.0553 19.5413H51.4838C51.6089 19.9867 55.3622 26.6913 55.5076 27.2845H44.0553V19.5413ZM5.7779 13.4645C5.7779 14.1774 5.77771 14.5239 6.46946 15.1598C6.80242 15.4658 7.23259 15.7188 7.8413 15.7188H39.9284V29.5391C39.9284 30.0608 40.524 30.7427 40.897 30.9712C41.7897 31.5182 46.5346 31.3033 47.9758 31.3033C51.3118 31.3033 54.6477 31.3033 57.9838 31.3033C58.3569 31.9731 60.8727 34.7019 60.8727 35.028V44.8296H57.0553C56.9507 43.6343 55.3647 41.4994 54.2719 40.711C50.8232 38.2226 46.4928 38.3419 43.3437 41.2129C42.4384 42.0382 41.2678 43.6729 41.1666 44.8296H29.0953C28.9726 44.5866 28.7252 43.6901 28.3524 43.085C27.3805 41.507 26.0292 40.1678 24.1564 39.5239C17.6271 37.2793 13.2596 42.5696 13.2066 44.8294H8.04796C5.95586 44.8294 4.94014 47.1382 6.56572 48.3938C7.13883 48.8364 7.48442 48.8541 8.45995 48.8486C10.0411 48.8401 11.625 48.8479 13.2066 48.8479C13.2668 49.5352 13.9077 50.6313 14.2366 51.1039C14.507 51.4928 14.6984 51.6644 15.0038 52.0412C15.29 52.3946 15.5759 52.552 15.9156 52.8413C17.6807 54.344 20.2198 54.8364 22.5549 54.4943C24.6414 54.1887 26.6782 52.8527 27.8731 51.2152C28.22 50.7398 28.9759 49.5489 28.9923 48.8477H41.1668C41.3855 49.739 41.7698 50.4591 42.2583 51.1434C42.9434 52.1025 43.9147 53.0056 44.9838 53.5528C45.1826 53.6546 45.3367 53.7591 45.5047 53.842C46.967 54.5639 48.9822 54.7677 50.6881 54.4627C51.3033 54.3527 51.5106 54.2587 52.0395 54.0802C52.9532 53.7717 53.5782 53.3343 54.2711 52.8676C55.159 52.2697 56.0813 51.0363 56.5762 50.0586C56.7886 49.6389 56.8647 49.2253 57.0555 48.8477C58.7064 48.8477 60.3572 48.8459 62.008 48.8477C62.9864 48.8488 63.4909 48.9081 64.1191 48.5009C64.5967 48.1911 65.0001 47.6955 65.0001 46.9855V34.0473C65.0001 33.2076 64.1554 32.4573 63.5555 31.6949C60.3915 27.6723 61.6226 29.8921 58.9815 24.8665L55.681 18.6906C55.1441 17.79 54.4575 15.6205 53.0317 15.6205H44.0555V13.5621C44.0555 12.4812 42.9638 11.6998 41.7857 11.6998H8.04777C7.11548 11.6998 6.45205 12.0643 6.05039 12.7429C5.92218 12.9595 5.7779 13.1889 5.7779 13.4643V13.4645Z" fill="white"/>
<path fill-rule="evenodd" clip-rule="evenodd" d="M3.30151 21.6977C3.30151 22.6978 4.21409 23.658 5.26177 23.658H23.0076C24.5735 23.658 25.6116 21.7074 24.4736 20.403C24.2654 20.1645 23.6347 19.7373 23.2141 19.7373H5.05549C4.37579 19.7373 3.30151 20.5179 3.30151 21.6977Z" fill="white"/>
<path fill-rule="evenodd" clip-rule="evenodd" d="M0 29.1468V29.6369C0 30.3809 0.98453 31.3032 1.75397 31.3032H19.8094C20.3986 31.3032 21.5634 30.586 21.5634 29.5389C21.5634 28.6516 21.5611 28.498 20.9224 27.8935C20.5377 27.5294 20.2337 27.3825 19.4998 27.3825H2.0634C1.32955 27.3825 1.02567 27.5294 0.640853 27.8935C0.280337 28.2347 0 28.4894 0 29.1468H0Z" fill="white"/>
<path fill-rule="evenodd" clip-rule="evenodd" d="M3.30151 36.9881C3.30151 38.0397 4.16147 38.9485 5.26177 38.9485H14.9601C16.3459 38.9485 17.7168 37.2433 16.3666 35.6521C16.1651 35.4147 15.4569 35.0278 15.0634 35.0278H5.26196C4.14846 35.0278 3.3017 35.9957 3.3017 36.9881H3.30151Z" fill="white"/>
<path d="M88.8098 30V16H99.5698V18.52H91.7098V21.72H96.8898V24.16H91.7098V27.48H99.6498V30H88.8098ZM101.52 30V19.58H104.26V20.44C105.047 19.7333 106.02 19.38 107.18 19.38C107.994 19.38 108.707 19.56 109.32 19.92C109.947 20.2667 110.434 20.7533 110.78 21.38C111.127 21.9933 111.3 22.7133 111.3 23.54V30H108.56V23.94C108.56 23.26 108.367 22.7267 107.98 22.34C107.594 21.94 107.067 21.74 106.4 21.74C105.934 21.74 105.52 21.8333 105.16 22.02C104.8 22.1933 104.5 22.4467 104.26 22.78V30H101.52ZM118.023 30.16C116.863 30.16 115.983 29.9 115.383 29.38C114.796 28.8467 114.503 28.0733 114.503 27.06V21.86H112.363V19.58H114.503V16.92L117.243 16.3V19.58H120.223V21.86H117.243V26.5C117.243 26.98 117.35 27.3267 117.563 27.54C117.776 27.74 118.15 27.84 118.683 27.84C118.95 27.84 119.19 27.8267 119.403 27.8C119.63 27.76 119.876 27.6933 120.143 27.6V29.86C119.863 29.9533 119.51 30.0267 119.083 30.08C118.67 30.1333 118.316 30.16 118.023 30.16ZM121.559 30V19.58H124.299V20.74C124.633 20.2867 125.033 19.94 125.499 19.7C125.966 19.46 126.493 19.34 127.079 19.34C127.586 19.3533 127.966 19.4333 128.219 19.58V21.98C128.019 21.8867 127.799 21.82 127.559 21.78C127.319 21.7267 127.073 21.7 126.819 21.7C126.286 21.7 125.799 21.8333 125.359 22.1C124.919 22.3667 124.566 22.7467 124.299 23.24V30H121.559ZM134.413 30.2C133.373 30.2 132.427 29.96 131.573 29.48C130.733 29 130.067 28.3533 129.573 27.54C129.08 26.7267 128.833 25.8133 128.833 24.8C128.833 23.7867 129.067 22.8733 129.533 22.06C130.013 21.2467 130.66 20.6 131.473 20.12C132.287 19.64 133.193 19.4 134.193 19.4C135.193 19.4 136.08 19.6467 136.853 20.14C137.627 20.6333 138.233 21.3 138.673 22.14C139.127 22.98 139.353 23.9333 139.353 25V25.72H131.633C131.753 26.1333 131.947 26.5067 132.213 26.84C132.493 27.1733 132.833 27.4333 133.233 27.62C133.647 27.8067 134.087 27.9 134.553 27.9C135.02 27.9 135.447 27.8267 135.833 27.68C136.233 27.5333 136.573 27.3267 136.853 27.06L138.653 28.7C138.013 29.22 137.353 29.6 136.673 29.84C136.007 30.08 135.253 30.2 134.413 30.2ZM131.593 23.76H136.653C136.56 23.3467 136.387 22.9867 136.133 22.68C135.893 22.36 135.6 22.1133 135.253 21.94C134.92 21.7533 134.547 21.66 134.133 21.66C133.707 21.66 133.32 21.7467 132.973 21.92C132.627 22.0933 132.333 22.34 132.093 22.66C131.867 22.9667 131.7 23.3333 131.593 23.76ZM146.35 34.28C145.55 34.28 144.777 34.1933 144.03 34.02C143.284 33.86 142.61 33.6267 142.01 33.32L142.97 31.2C143.544 31.48 144.104 31.6867 144.65 31.82C145.197 31.9533 145.744 32.02 146.29 32.02C147.104 32.02 147.717 31.8467 148.13 31.5C148.557 31.1533 148.77 30.6333 148.77 29.94V29.12C147.917 29.7467 146.964 30.06 145.91 30.06C144.924 30.06 144.03 29.8267 143.23 29.36C142.444 28.88 141.81 28.2333 141.33 27.42C140.864 26.6067 140.63 25.7067 140.63 24.72C140.63 23.7333 140.864 22.84 141.33 22.04C141.81 21.24 142.457 20.6067 143.27 20.14C144.084 19.66 144.99 19.42 145.99 19.42C146.497 19.42 146.99 19.4933 147.47 19.64C147.95 19.7867 148.397 19.9933 148.81 20.26V19.58H151.51V29.98C151.51 31.3533 151.064 32.4133 150.17 33.16C149.29 33.9067 148.017 34.28 146.35 34.28ZM146.33 27.74C146.837 27.74 147.297 27.66 147.71 27.5C148.124 27.3267 148.477 27.0867 148.77 26.78V22.7C148.477 22.4067 148.117 22.18 147.69 22.02C147.277 21.8467 146.83 21.76 146.35 21.76C145.777 21.76 145.264 21.8933 144.81 22.16C144.357 22.4133 143.997 22.7667 143.73 23.22C143.464 23.66 143.33 24.16 143.33 24.72C143.33 25.2933 143.457 25.8067 143.71 26.26C143.977 26.7133 144.337 27.0733 144.79 27.34C145.257 27.6067 145.77 27.74 146.33 27.74ZM156.969 30.18C156.223 30.18 155.563 30.0467 154.989 29.78C154.416 29.5 153.969 29.12 153.649 28.64C153.329 28.16 153.169 27.6067 153.169 26.98C153.169 25.98 153.543 25.2067 154.289 24.66C155.049 24.1 156.089 23.82 157.409 23.82C158.316 23.82 159.169 23.96 159.969 24.24V23.48C159.969 22.88 159.783 22.4267 159.409 22.12C159.036 21.8133 158.489 21.66 157.769 21.66C157.329 21.66 156.856 21.7333 156.349 21.88C155.843 22.0133 155.256 22.2267 154.589 22.52L153.589 20.5C154.416 20.1267 155.203 19.8467 155.949 19.66C156.709 19.4733 157.469 19.38 158.229 19.38C159.629 19.38 160.716 19.72 161.489 20.4C162.276 21.0667 162.669 22.0133 162.669 23.24V30H159.969V29.26C159.543 29.58 159.083 29.8133 158.589 29.96C158.096 30.1067 157.556 30.18 156.969 30.18ZM155.769 26.92C155.769 27.32 155.943 27.64 156.289 27.88C156.636 28.1067 157.096 28.22 157.669 28.22C158.123 28.22 158.543 28.1667 158.929 28.06C159.316 27.94 159.663 27.7667 159.969 27.54V26.02C159.636 25.8867 159.289 25.7867 158.929 25.72C158.569 25.6533 158.183 25.62 157.769 25.62C157.143 25.62 156.649 25.74 156.289 25.98C155.943 26.2067 155.769 26.52 155.769 26.92ZM164.743 30V19.58H167.483V20.38C168.23 19.7133 169.136 19.38 170.203 19.38C170.883 19.38 171.49 19.52 172.023 19.8C172.556 20.0667 172.996 20.4467 173.343 20.94C173.77 20.4333 174.27 20.0467 174.843 19.78C175.43 19.5133 176.076 19.38 176.783 19.38C177.57 19.38 178.256 19.56 178.843 19.92C179.443 20.2667 179.91 20.7533 180.243 21.38C180.59 21.9933 180.763 22.7133 180.763 23.54V30H178.043V23.94C178.043 23.26 177.863 22.7267 177.503 22.34C177.143 21.94 176.663 21.74 176.063 21.74C175.65 21.74 175.27 21.8267 174.923 22C174.59 22.1733 174.303 22.4333 174.063 22.78C174.076 22.9 174.09 23.02 174.103 23.14C174.116 23.26 174.123 23.3933 174.123 23.54V30H171.383V23.94C171.383 23.26 171.203 22.7267 170.843 22.34C170.496 21.94 170.023 21.74 169.423 21.74C169.01 21.74 168.636 21.82 168.303 21.98C167.983 22.14 167.71 22.38 167.483 22.7V30H164.743ZM187.929 30.2C186.889 30.2 185.949 29.96 185.109 29.48C184.269 29 183.602 28.3533 183.109 27.54C182.615 26.7267 182.369 25.8133 182.369 24.8C182.369 23.7867 182.609 22.8733 183.089 22.06C183.582 21.2333 184.249 20.58 185.089 20.1C185.942 19.62 186.889 19.38 187.929 19.38C188.969 19.38 189.909 19.62 190.749 20.1C191.602 20.58 192.269 21.2333 192.749 22.06C193.242 22.8733 193.489 23.7867 193.489 24.8C193.489 25.8133 193.242 26.7267 192.749 27.54C192.269 28.3533 191.609 29 190.769 29.48C189.929 29.96 188.982 30.2 187.929 30.2ZM187.929 27.82C188.475 27.82 188.962 27.6867 189.389 27.42C189.829 27.1533 190.175 26.7933 190.429 26.34C190.695 25.8733 190.829 25.36 190.829 24.8C190.829 24.2267 190.695 23.7133 190.429 23.26C190.175 22.8067 189.829 22.4467 189.389 22.18C188.962 21.9 188.475 21.76 187.929 21.76C187.395 21.76 186.909 21.9 186.469 22.18C186.029 22.4467 185.682 22.8067 185.429 23.26C185.175 23.7133 185.049 24.2267 185.049 24.8C185.049 25.36 185.175 25.8733 185.429 26.34C185.682 26.7933 186.029 27.1533 186.469 27.42C186.909 27.6867 187.395 27.82 187.929 27.82ZM199.073 30.2C198.113 30.2 197.226 30.08 196.413 29.84C195.599 29.5867 194.893 29.2267 194.293 28.76L195.653 26.94C196.253 27.34 196.826 27.64 197.373 27.84C197.933 28.04 198.486 28.14 199.033 28.14C199.646 28.14 200.133 28.04 200.493 27.84C200.866 27.6267 201.053 27.3533 201.053 27.02C201.053 26.7533 200.946 26.54 200.733 26.38C200.533 26.22 200.206 26.1067 199.753 26.04L197.753 25.74C196.713 25.58 195.926 25.2467 195.393 24.74C194.859 24.22 194.593 23.54 194.593 22.7C194.593 22.02 194.766 21.44 195.113 20.96C195.473 20.4667 195.973 20.0867 196.613 19.82C197.266 19.54 198.039 19.4 198.933 19.4C199.693 19.4 200.433 19.5067 201.153 19.72C201.886 19.9333 202.573 20.26 203.213 20.7L201.893 22.48C201.319 22.12 200.773 21.86 200.253 21.7C199.733 21.54 199.206 21.46 198.673 21.46C198.179 21.46 197.779 21.5533 197.473 21.74C197.179 21.9267 197.033 22.1733 197.033 22.48C197.033 22.76 197.139 22.98 197.353 23.14C197.566 23.3 197.933 23.4133 198.453 23.48L200.433 23.78C201.473 23.9267 202.266 24.26 202.813 24.78C203.359 25.2867 203.633 25.9467 203.633 26.76C203.633 27.4267 203.433 28.02 203.033 28.54C202.633 29.0467 202.093 29.4533 201.413 29.76C200.733 30.0533 199.953 30.2 199.073 30.2ZM214.12 30.2C213.08 30.2 212.134 29.96 211.28 29.48C210.44 29 209.774 28.3533 209.28 27.54C208.787 26.7267 208.54 25.8133 208.54 24.8C208.54 23.7867 208.774 22.8733 209.24 22.06C209.72 21.2467 210.367 20.6 211.18 20.12C211.994 19.64 212.9 19.4 213.9 19.4C214.9 19.4 215.787 19.6467 216.56 20.14C217.334 20.6333 217.94 21.3 218.38 22.14C218.834 22.98 219.06 23.9333 219.06 25V25.72H211.34C211.46 26.1333 211.654 26.5067 211.92 26.84C212.2 27.1733 212.54 27.4333 212.94 27.62C213.354 27.8067 213.794 27.9 214.26 27.9C214.727 27.9 215.154 27.8267 215.54 27.68C215.94 27.5333 216.28 27.3267 216.56 27.06L218.36 28.7C217.72 29.22 217.06 29.6 216.38 29.84C215.714 30.08 214.96 30.2 214.12 30.2ZM211.3 23.76H216.36C216.267 23.3467 216.094 22.9867 215.84 22.68C215.6 22.36 215.307 22.1133 214.96 21.94C214.627 21.7533 214.254 21.66 213.84 21.66C213.414 21.66 213.027 21.7467 212.68 21.92C212.334 22.0933 212.04 22.34 211.8 22.66C211.574 22.9667 211.407 23.3333 211.3 23.76ZM220.739 30V19.58H223.479V20.38C224.226 19.7133 225.133 19.38 226.199 19.38C226.879 19.38 227.486 19.52 228.019 19.8C228.553 20.0667 228.993 20.4467 229.339 20.94C229.766 20.4333 230.266 20.0467 230.839 19.78C231.426 19.5133 232.073 19.38 232.779 19.38C233.566 19.38 234.253 19.56 234.839 19.92C235.439 20.2667 235.906 20.7533 236.239 21.38C236.586 21.9933 236.759 22.7133 236.759 23.54V30H234.039V23.94C234.039 23.26 233.859 22.7267 233.499 22.34C233.139 21.94 232.659 21.74 232.059 21.74C231.646 21.74 231.266 21.8267 230.919 22C230.586 22.1733 230.299 22.4333 230.059 22.78C230.073 22.9 230.086 23.02 230.099 23.14C230.113 23.26 230.119 23.3933 230.119 23.54V30H227.379V23.94C227.379 23.26 227.199 22.7267 226.839 22.34C226.493 21.94 226.019 21.74 225.419 21.74C225.006 21.74 224.633 21.82 224.299 21.98C223.979 22.14 223.706 22.38 223.479 22.7V30H220.739ZM93.5698 56.16C92.4098 56.16 91.5298 55.9 90.9298 55.38C90.3431 54.8467 90.0498 54.0733 90.0498 53.06V47.86H87.9098V45.58H90.0498V42.92L92.7898 42.3V45.58H95.7698V47.86H92.7898V52.5C92.7898 52.98 92.8965 53.3267 93.1098 53.54C93.3231 53.74 93.6965 53.84 94.2298 53.84C94.4965 53.84 94.7365 53.8267 94.9498 53.8C95.1765 53.76 95.4231 53.6933 95.6898 53.6V55.86C95.4098 55.9533 95.0565 56.0267 94.6298 56.08C94.2165 56.1333 93.8631 56.16 93.5698 56.16ZM102.069 56.2C101.029 56.2 100.089 55.96 99.2492 55.48C98.4092 55 97.7425 54.3533 97.2492 53.54C96.7558 52.7267 96.5092 51.8133 96.5092 50.8C96.5092 49.7867 96.7492 48.8733 97.2292 48.06C97.7225 47.2333 98.3892 46.58 99.2292 46.1C100.083 45.62 101.029 45.38 102.069 45.38C103.109 45.38 104.049 45.62 104.889 46.1C105.743 46.58 106.409 47.2333 106.889 48.06C107.383 48.8733 107.629 49.7867 107.629 50.8C107.629 51.8133 107.383 52.7267 106.889 53.54C106.409 54.3533 105.749 55 104.909 55.48C104.069 55.96 103.123 56.2 102.069 56.2ZM102.069 53.82C102.616 53.82 103.103 53.6867 103.529 53.42C103.969 53.1533 104.316 52.7933 104.569 52.34C104.836 51.8733 104.969 51.36 104.969 50.8C104.969 50.2267 104.836 49.7133 104.569 49.26C104.316 48.8067 103.969 48.4467 103.529 48.18C103.103 47.9 102.616 47.76 102.069 47.76C101.536 47.76 101.049 47.9 100.609 48.18C100.169 48.4467 99.8225 48.8067 99.5692 49.26C99.3158 49.7133 99.1892 50.2267 99.1892 50.8C99.1892 51.36 99.3158 51.8733 99.5692 52.34C99.8225 52.7933 100.169 53.1533 100.609 53.42C101.049 53.6867 101.536 53.82 102.069 53.82ZM114.133 56.14C113.147 56.14 112.253 55.9 111.453 55.42C110.653 54.94 110.013 54.3 109.533 53.5C109.067 52.6867 108.833 51.78 108.833 50.78C108.833 49.78 109.067 48.88 109.533 48.08C110.013 47.2667 110.66 46.6267 111.473 46.16C112.287 45.68 113.2 45.44 114.213 45.44C114.733 45.44 115.233 45.5133 115.713 45.66C116.193 45.7933 116.64 45.9933 117.053 46.26V42L119.793 41.54V56H117.093V55.14C116.24 55.8067 115.253 56.14 114.133 56.14ZM114.573 53.8C115.08 53.8 115.54 53.72 115.953 53.56C116.38 53.3867 116.747 53.1333 117.053 52.8V48.74C116.747 48.4333 116.38 48.1933 115.953 48.02C115.527 47.8467 115.067 47.76 114.573 47.76C114 47.76 113.48 47.8933 113.013 48.16C112.56 48.4133 112.2 48.7733 111.933 49.24C111.667 49.6933 111.533 50.2067 111.533 50.78C111.533 51.3533 111.667 51.8667 111.933 52.32C112.2 52.7733 112.56 53.1333 113.013 53.4C113.48 53.6667 114 53.8 114.573 53.8ZM127.011 56.2C125.971 56.2 125.031 55.96 124.191 55.48C123.351 55 122.684 54.3533 122.191 53.54C121.697 52.7267 121.451 51.8133 121.451 50.8C121.451 49.7867 121.691 48.8733 122.171 48.06C122.664 47.2333 123.331 46.58 124.171 46.1C125.024 45.62 125.971 45.38 127.011 45.38C128.051 45.38 128.991 45.62 129.831 46.1C130.684 46.58 131.351 47.2333 131.831 48.06C132.324 48.8733 132.571 49.7867 132.571 50.8C132.571 51.8133 132.324 52.7267 131.831 53.54C131.351 54.3533 130.691 55 129.851 55.48C129.011 55.96 128.064 56.2 127.011 56.2ZM127.011 53.82C127.557 53.82 128.044 53.6867 128.471 53.42C128.911 53.1533 129.257 52.7933 129.511 52.34C129.777 51.8733 129.911 51.36 129.911 50.8C129.911 50.2267 129.777 49.7133 129.511 49.26C129.257 48.8067 128.911 48.4467 128.471 48.18C128.044 47.9 127.557 47.76 127.011 47.76C126.477 47.76 125.991 47.9 125.551 48.18C125.111 48.4467 124.764 48.8067 124.511 49.26C124.257 49.7133 124.131 50.2267 124.131 50.8C124.131 51.36 124.257 51.8733 124.511 52.34C124.764 52.7933 125.111 53.1533 125.551 53.42C125.991 53.6867 126.477 53.82 127.011 53.82ZM138.458 56V42H145.038C145.985 42 146.812 42.16 147.518 42.48C148.225 42.8 148.778 43.2533 149.178 43.84C149.578 44.4133 149.778 45.08 149.778 45.84C149.778 46.4533 149.618 47.02 149.298 47.54C148.992 48.0467 148.572 48.46 148.038 48.78C148.718 49.1 149.258 49.5333 149.658 50.08C150.058 50.6267 150.258 51.2467 150.258 51.94C150.258 52.74 150.052 53.4467 149.638 54.06C149.238 54.6733 148.665 55.1533 147.918 55.5C147.185 55.8333 146.332 56 145.358 56H138.458ZM141.358 47.72H144.858C145.485 47.72 145.978 47.5733 146.338 47.28C146.712 46.9733 146.898 46.5667 146.898 46.06C146.898 45.5533 146.712 45.1533 146.338 44.86C145.978 44.5533 145.485 44.4 144.858 44.4H141.358V47.72ZM141.358 53.6H145.138C145.805 53.6 146.338 53.44 146.738 53.12C147.138 52.7867 147.338 52.3467 147.338 51.8C147.338 51.24 147.138 50.8 146.738 50.48C146.338 50.1467 145.805 49.98 145.138 49.98H141.358V53.6ZM152.106 56V45.58H154.846V46.74C155.18 46.2867 155.58 45.94 156.046 45.7C156.513 45.46 157.04 45.34 157.626 45.34C158.133 45.3533 158.513 45.4333 158.766 45.58V47.98C158.566 47.8867 158.346 47.82 158.106 47.78C157.866 47.7267 157.62 47.7 157.366 47.7C156.833 47.7 156.346 47.8333 155.906 48.1C155.466 48.3667 155.113 48.7467 154.846 49.24V56H152.106ZM163.297 56.18C162.551 56.18 161.891 56.0467 161.317 55.78C160.744 55.5 160.297 55.12 159.977 54.64C159.657 54.16 159.497 53.6067 159.497 52.98C159.497 51.98 159.871 51.2067 160.617 50.66C161.377 50.1 162.417 49.82 163.737 49.82C164.644 49.82 165.497 49.96 166.297 50.24V49.48C166.297 48.88 166.111 48.4267 165.737 48.12C165.364 47.8133 164.817 47.66 164.097 47.66C163.657 47.66 163.184 47.7333 162.677 47.88C162.171 48.0133 161.584 48.2267 160.917 48.52L159.917 46.5C160.744 46.1267 161.531 45.8467 162.277 45.66C163.037 45.4733 163.797 45.38 164.557 45.38C165.957 45.38 167.044 45.72 167.817 46.4C168.604 47.0667 168.997 48.0133 168.997 49.24V56H166.297V55.26C165.871 55.58 165.411 55.8133 164.917 55.96C164.424 56.1067 163.884 56.18 163.297 56.18ZM162.097 52.92C162.097 53.32 162.271 53.64 162.617 53.88C162.964 54.1067 163.424 54.22 163.997 54.22C164.451 54.22 164.871 54.1667 165.257 54.06C165.644 53.94 165.991 53.7667 166.297 53.54V52.02C165.964 51.8867 165.617 51.7867 165.257 51.72C164.897 51.6533 164.511 51.62 164.097 51.62C163.471 51.62 162.977 51.74 162.617 51.98C162.271 52.2067 162.097 52.52 162.097 52.92ZM174.971 56.2C174.011 56.2 173.125 56.08 172.311 55.84C171.498 55.5867 170.791 55.2267 170.191 54.76L171.551 52.94C172.151 53.34 172.725 53.64 173.271 53.84C173.831 54.04 174.385 54.14 174.931 54.14C175.545 54.14 176.031 54.04 176.391 53.84C176.765 53.6267 176.951 53.3533 176.951 53.02C176.951 52.7533 176.845 52.54 176.631 52.38C176.431 52.22 176.105 52.1067 175.651 52.04L173.651 51.74C172.611 51.58 171.825 51.2467 171.291 50.74C170.758 50.22 170.491 49.54 170.491 48.7C170.491 48.02 170.665 47.44 171.011 46.96C171.371 46.4667 171.871 46.0867 172.511 45.82C173.165 45.54 173.938 45.4 174.831 45.4C175.591 45.4 176.331 45.5067 177.051 45.72C177.785 45.9333 178.471 46.26 179.111 46.7L177.791 48.48C177.218 48.12 176.671 47.86 176.151 47.7C175.631 47.54 175.105 47.46 174.571 47.46C174.078 47.46 173.678 47.5533 173.371 47.74C173.078 47.9267 172.931 48.1733 172.931 48.48C172.931 48.76 173.038 48.98 173.251 49.14C173.465 49.3 173.831 49.4133 174.351 49.48L176.331 49.78C177.371 49.9267 178.165 50.26 178.711 50.78C179.258 51.2867 179.531 51.9467 179.531 52.76C179.531 53.4267 179.331 54.02 178.931 54.54C178.531 55.0467 177.991 55.4533 177.311 55.76C176.631 56.0533 175.851 56.2 174.971 56.2ZM180.895 56V45.58H183.635V56H180.895ZM182.255 44.34C181.829 44.34 181.462 44.1867 181.155 43.88C180.849 43.5733 180.695 43.2067 180.695 42.78C180.695 42.34 180.849 41.9733 181.155 41.68C181.462 41.3733 181.829 41.22 182.255 41.22C182.695 41.22 183.062 41.3733 183.355 41.68C183.662 41.9733 183.815 42.34 183.815 42.78C183.815 43.2067 183.662 43.5733 183.355 43.88C183.062 44.1867 182.695 44.34 182.255 44.34ZM185.778 56V42L188.518 41.54V56H185.778Z" fill="#F9F9F9"/>
</svg>
