<svg width="65" height="65" viewBox="0 0 65 65" fill="none" xmlns="http://www.w3.org/2000/svg">
<g clip-path="url(#clip0_304_178)">
<path fill-rule="evenodd" clip-rule="evenodd" d="M5.58578 43.3434L28.3838 37.3844C29.2815 37.1439 30.0867 36.9436 30.9613 36.6973L46.211 32.7326C46.3129 33.8947 50.1466 45.7602 50.1466 46.7196C50.1466 47.1627 45.8691 48.1074 45.2949 48.2608L12.2029 56.9832C11.1434 57.2793 10.5046 57.5185 9.64845 57.4509L6.57542 46.9856C6.36319 46.2444 5.60493 43.9976 5.58586 43.3434L5.58578 43.3434ZM0 33.2207V33.213C0.00155079 30.696 2.91284 30.3213 4.49821 29.8911C6.64442 29.3086 8.62036 28.8006 10.7649 28.2465C15.1698 27.1086 14.4443 27.5462 14.7526 26.2463L15.7955 21.5697C15.9194 20.9748 16.0098 20.5324 16.1483 19.9756C16.2353 19.6263 16.3536 18.802 16.5039 18.5046C17.398 18.5046 30.1934 21.2172 32.1726 21.589C34.9795 22.1163 33.6002 22.2232 36.4891 21.4493C37.2195 21.2537 37.8342 21.1111 38.4817 20.9302C41.1672 20.1801 43.9501 18.9601 45.4944 21.4764C45.8106 21.9918 46.421 24.0321 46.4649 24.5335L62.4611 27.6684L61.2687 33.1678C60.9214 34.5988 59.816 40.4746 59.2688 41.2761C57.4349 43.962 54.0135 41.9712 51.5431 41.776C51.6367 42.1572 51.797 42.6336 51.9093 42.9958C52.4595 44.7727 53.6739 47.5892 51.6197 48.9628C50.4904 49.7181 42.6073 51.5594 40.6787 52.0759L11.6647 59.7277C7.16766 61.0113 6.90798 57.4975 6.03892 54.6093C5.32129 52.2242 4.72021 50.0099 4.00909 47.6146L0.940165 37.1454C0.559524 35.6993 0.00162833 34.5935 0.000155079 33.2208L0 33.2207ZM56.3672 36.4705C55.4949 36.4705 53.7753 36.0848 52.9143 35.8918C50.6138 35.3755 49.9861 35.6608 50.6797 32.8772C51.8267 28.2739 50.7861 28.5127 55.7651 29.4462C59.1569 30.0822 58.6336 30.0617 57.7963 34.0897C57.5806 35.127 57.5007 36.4705 56.3673 36.4705H56.3672ZM3.93543 38.1585C3.89767 37.7267 3.76221 37.4016 3.63675 36.9955C3.41452 36.2759 2.66588 33.8203 2.66588 33.3356C2.66588 32.8533 3.17113 32.8464 3.56572 32.7434L7.34856 31.7541C15.504 29.476 24.3571 27.3582 32.5818 25.0936C33.8685 24.7391 42.2016 22.4836 42.7832 22.4836C43.3487 22.4836 43.5917 23.8764 43.8253 24.7493C43.9421 25.1852 44.0627 25.5879 44.2072 26.0748C44.3195 26.4535 44.5186 26.9485 44.5605 27.4272C40.0271 28.4303 34.1237 30.2792 29.3527 31.4316C24.4784 32.6089 18.9353 34.2961 14.143 35.4341L9.06706 36.7625C8.16823 37.0032 7.36616 37.2041 6.48927 37.4491C5.81708 37.6368 4.50674 37.8983 3.93528 38.1585L3.93543 38.1585Z" fill="white"/>
<path fill-rule="evenodd" clip-rule="evenodd" d="M18.2812 11.9935L61.2412 20.6278C62.032 20.8009 63.4388 21.1573 64.2383 21.1573C64.2769 19.5109 64.942 17.8216 65 16.3318V15.9405C64.9649 15.0829 64.6806 14.3024 63.8919 13.6489C62.8595 12.7933 57.2497 11.9294 55.8269 11.6627C46.6824 9.94807 37.0759 7.77628 27.9623 6.05432C26.1199 5.70635 23.5035 5.00017 21.7089 5.00017C20.3522 5.00017 19.2049 6.22127 18.9486 7.44282C18.7871 8.21263 18.726 8.83265 18.5908 9.63493C18.4466 10.4894 18.2812 11.0514 18.2812 11.9936V11.9935Z" fill="white"/>
<path fill-rule="evenodd" clip-rule="evenodd" d="M11.9336 54.557C12.4178 54.557 16.1221 53.5703 16.7768 53.3694C18.7374 52.7681 17.7264 51.0661 17.0653 48.839C16.1147 45.6365 16.205 46.2786 12.112 47.2507C8.53492 48.1002 9.24541 48.2649 10.284 52.0242C10.5404 52.9527 10.7378 54.557 11.9336 54.557Z" fill="white"/>
</g>
<defs>
<clipPath id="clip0_304_178">
<rect width="65" height="55" fill="white" transform="translate(0 5)"/>
</clipPath>
</defs>
</svg>
