<svg width="309" height="71" viewBox="0 0 309 71" fill="none" xmlns="http://www.w3.org/2000/svg">
<g clip-path="url(#clip0_304_177)">
<path fill-rule="evenodd" clip-rule="evenodd" d="M5.58578 43.3434L28.3838 37.3844C29.2815 37.1439 30.0867 36.9436 30.9613 36.6973L46.211 32.7326C46.3129 33.8947 50.1466 45.7602 50.1466 46.7196C50.1466 47.1627 45.8691 48.1074 45.2949 48.2608L12.2029 56.9832C11.1434 57.2793 10.5046 57.5185 9.64845 57.4509L6.57542 46.9856C6.36319 46.2444 5.60493 43.9976 5.58586 43.3434L5.58578 43.3434ZM0 33.2207V33.213C0.00155079 30.696 2.91284 30.3213 4.49821 29.8911C6.64442 29.3086 8.62036 28.8006 10.7649 28.2465C15.1698 27.1086 14.4443 27.5462 14.7526 26.2463L15.7955 21.5697C15.9194 20.9748 16.0098 20.5324 16.1483 19.9756C16.2353 19.6263 16.3536 18.802 16.5039 18.5046C17.398 18.5046 30.1934 21.2172 32.1726 21.589C34.9795 22.1163 33.6002 22.2232 36.4891 21.4493C37.2195 21.2537 37.8342 21.1111 38.4817 20.9302C41.1672 20.1801 43.9501 18.9601 45.4944 21.4764C45.8106 21.9918 46.421 24.0321 46.4649 24.5335L62.4611 27.6684L61.2687 33.1678C60.9214 34.5988 59.816 40.4746 59.2688 41.2761C57.4349 43.962 54.0135 41.9712 51.5431 41.776C51.6367 42.1572 51.797 42.6336 51.9093 42.9958C52.4595 44.7727 53.6739 47.5892 51.6197 48.9628C50.4904 49.7181 42.6073 51.5594 40.6787 52.0759L11.6647 59.7277C7.16766 61.0113 6.90798 57.4975 6.03892 54.6093C5.32129 52.2242 4.72021 50.0099 4.00909 47.6146L0.940165 37.1454C0.559524 35.6993 0.00162833 34.5935 0.000155079 33.2208L0 33.2207ZM56.3672 36.4705C55.4949 36.4705 53.7753 36.0848 52.9143 35.8918C50.6138 35.3755 49.9861 35.6608 50.6797 32.8772C51.8267 28.2739 50.7861 28.5127 55.7651 29.4462C59.1569 30.0822 58.6336 30.0617 57.7963 34.0897C57.5806 35.127 57.5007 36.4705 56.3673 36.4705H56.3672ZM3.93543 38.1585C3.89767 37.7267 3.76221 37.4016 3.63675 36.9955C3.41452 36.2759 2.66588 33.8203 2.66588 33.3356C2.66588 32.8533 3.17113 32.8464 3.56572 32.7434L7.34856 31.7541C15.504 29.476 24.3571 27.3582 32.5818 25.0936C33.8685 24.7391 42.2016 22.4836 42.7832 22.4836C43.3487 22.4836 43.5917 23.8764 43.8253 24.7493C43.9421 25.1852 44.0627 25.5879 44.2072 26.0748C44.3195 26.4535 44.5186 26.9485 44.5605 27.4272C40.0271 28.4303 34.1237 30.2792 29.3527 31.4316C24.4784 32.6089 18.9353 34.2961 14.143 35.4341L9.06706 36.7625C8.16823 37.0032 7.36616 37.2041 6.48927 37.4491C5.81708 37.6368 4.50674 37.8983 3.93528 38.1585L3.93543 38.1585Z" fill="white"/>
<path fill-rule="evenodd" clip-rule="evenodd" d="M18.2812 11.9935L61.2412 20.6278C62.032 20.8009 63.4388 21.1573 64.2383 21.1573C64.2769 19.5109 64.942 17.8216 65 16.3318V15.9405C64.9649 15.0829 64.6806 14.3024 63.8919 13.6489C62.8595 12.7933 57.2497 11.9294 55.8269 11.6627C46.6824 9.94807 37.0759 7.77628 27.9623 6.05432C26.1199 5.70635 23.5035 5.00017 21.7089 5.00017C20.3522 5.00017 19.2049 6.22127 18.9486 7.44282C18.7871 8.21263 18.726 8.83265 18.5908 9.63493C18.4466 10.4894 18.2812 11.0514 18.2812 11.9936V11.9935Z" fill="white"/>
<path fill-rule="evenodd" clip-rule="evenodd" d="M11.9336 54.557C12.4178 54.557 16.1221 53.5703 16.7768 53.3694C18.7374 52.7681 17.7264 51.0661 17.0653 48.839C16.1147 45.6365 16.205 46.2786 12.112 47.2507C8.53492 48.1002 9.24541 48.2649 10.284 52.0242C10.5404 52.9527 10.7378 54.557 11.9336 54.557Z" fill="white"/>
</g>
<path d="M88.8097 30V16H95.8297C96.7497 16 97.5563 16.1867 98.2497 16.56C98.9563 16.9333 99.5097 17.4533 99.9097 18.12C100.31 18.7733 100.51 19.5333 100.51 20.4C100.51 21.2267 100.31 21.9667 99.9097 22.62C99.5097 23.2733 98.9563 23.7867 98.2497 24.16C97.543 24.5333 96.7363 24.72 95.8297 24.72H91.7097V30H88.8097ZM91.7097 22.32H95.5097C96.1363 22.32 96.6363 22.1467 97.0097 21.8C97.3963 21.4533 97.5897 20.9933 97.5897 20.42C97.5897 19.8333 97.3963 19.3667 97.0097 19.02C96.6363 18.6733 96.1363 18.5 95.5097 18.5H91.7097V22.32ZM105.172 30.18C104.426 30.18 103.766 30.0467 103.192 29.78C102.619 29.5 102.172 29.12 101.852 28.64C101.532 28.16 101.372 27.6067 101.372 26.98C101.372 25.98 101.746 25.2067 102.492 24.66C103.252 24.1 104.292 23.82 105.612 23.82C106.519 23.82 107.372 23.96 108.172 24.24V23.48C108.172 22.88 107.986 22.4267 107.612 22.12C107.239 21.8133 106.692 21.66 105.972 21.66C105.532 21.66 105.059 21.7333 104.552 21.88C104.046 22.0133 103.459 22.2267 102.792 22.52L101.792 20.5C102.619 20.1267 103.406 19.8467 104.152 19.66C104.912 19.4733 105.672 19.38 106.432 19.38C107.832 19.38 108.919 19.72 109.692 20.4C110.479 21.0667 110.872 22.0133 110.872 23.24V30H108.172V29.26C107.746 29.58 107.286 29.8133 106.792 29.96C106.299 30.1067 105.759 30.18 105.172 30.18ZM103.972 26.92C103.972 27.32 104.146 27.64 104.492 27.88C104.839 28.1067 105.299 28.22 105.872 28.22C106.326 28.22 106.746 28.1667 107.132 28.06C107.519 27.94 107.866 27.7667 108.172 27.54V26.02C107.839 25.8867 107.492 25.7867 107.132 25.72C106.772 25.6533 106.386 25.62 105.972 25.62C105.346 25.62 104.852 25.74 104.492 25.98C104.146 26.2067 103.972 26.52 103.972 26.92ZM112.946 30V19.58H115.686V20.74C116.019 20.2867 116.419 19.94 116.886 19.7C117.353 19.46 117.879 19.34 118.466 19.34C118.973 19.3533 119.353 19.4333 119.606 19.58V21.98C119.406 21.8867 119.186 21.82 118.946 21.78C118.706 21.7267 118.459 21.7 118.206 21.7C117.673 21.7 117.186 21.8333 116.746 22.1C116.306 22.3667 115.953 22.7467 115.686 23.24V30H112.946ZM125.68 30.2C124.653 30.2 123.727 29.9667 122.9 29.5C122.073 29.02 121.42 28.3733 120.94 27.56C120.46 26.7333 120.22 25.8133 120.22 24.8C120.22 23.7733 120.46 22.8533 120.94 22.04C121.42 21.2267 122.073 20.58 122.9 20.1C123.727 19.62 124.653 19.38 125.68 19.38C126.507 19.38 127.293 19.54 128.04 19.86C128.8 20.18 129.453 20.64 130 21.24L128.32 23.02C127.933 22.5933 127.527 22.28 127.1 22.08C126.687 21.8667 126.233 21.76 125.74 21.76C125.207 21.76 124.727 21.8933 124.3 22.16C123.887 22.4267 123.553 22.7867 123.3 23.24C123.06 23.6933 122.94 24.2133 122.94 24.8C122.94 25.36 123.06 25.8733 123.3 26.34C123.553 26.7933 123.9 27.1533 124.34 27.42C124.78 27.6733 125.267 27.8 125.8 27.8C126.267 27.8 126.7 27.7067 127.1 27.52C127.513 27.32 127.907 27.0267 128.28 26.64L129.92 28.36C129.387 28.9333 128.747 29.3867 128 29.72C127.253 30.04 126.48 30.2 125.68 30.2ZM136.152 30.2C135.112 30.2 134.165 29.96 133.312 29.48C132.472 29 131.805 28.3533 131.312 27.54C130.818 26.7267 130.572 25.8133 130.572 24.8C130.572 23.7867 130.805 22.8733 131.272 22.06C131.752 21.2467 132.398 20.6 133.212 20.12C134.025 19.64 134.932 19.4 135.932 19.4C136.932 19.4 137.818 19.6467 138.592 20.14C139.365 20.6333 139.972 21.3 140.412 22.14C140.865 22.98 141.092 23.9333 141.092 25V25.72H133.372C133.492 26.1333 133.685 26.5067 133.952 26.84C134.232 27.1733 134.572 27.4333 134.972 27.62C135.385 27.8067 135.825 27.9 136.292 27.9C136.758 27.9 137.185 27.8267 137.572 27.68C137.972 27.5333 138.312 27.3267 138.592 27.06L140.392 28.7C139.752 29.22 139.092 29.6 138.412 29.84C137.745 30.08 136.992 30.2 136.152 30.2ZM133.332 23.76H138.392C138.298 23.3467 138.125 22.9867 137.872 22.68C137.632 22.36 137.338 22.1133 136.992 21.94C136.658 21.7533 136.285 21.66 135.872 21.66C135.445 21.66 135.058 21.7467 134.712 21.92C134.365 22.0933 134.072 22.34 133.832 22.66C133.605 22.9667 133.438 23.3333 133.332 23.76ZM142.77 30V16L145.51 15.54V30H142.77ZM150.973 30.18C150.226 30.18 149.566 30.0467 148.993 29.78C148.42 29.5 147.973 29.12 147.653 28.64C147.333 28.16 147.173 27.6067 147.173 26.98C147.173 25.98 147.546 25.2067 148.293 24.66C149.053 24.1 150.093 23.82 151.413 23.82C152.32 23.82 153.173 23.96 153.973 24.24V23.48C153.973 22.88 153.786 22.4267 153.413 22.12C153.04 21.8133 152.493 21.66 151.773 21.66C151.333 21.66 150.86 21.7333 150.353 21.88C149.846 22.0133 149.26 22.2267 148.593 22.52L147.593 20.5C148.42 20.1267 149.206 19.8467 149.953 19.66C150.713 19.4733 151.473 19.38 152.233 19.38C153.633 19.38 154.72 19.72 155.493 20.4C156.28 21.0667 156.673 22.0133 156.673 23.24V30H153.973V29.26C153.546 29.58 153.086 29.8133 152.593 29.96C152.1 30.1067 151.56 30.18 150.973 30.18ZM149.773 26.92C149.773 27.32 149.946 27.64 150.293 27.88C150.64 28.1067 151.1 28.22 151.673 28.22C152.126 28.22 152.546 28.1667 152.933 28.06C153.32 27.94 153.666 27.7667 153.973 27.54V26.02C153.64 25.8867 153.293 25.7867 152.933 25.72C152.573 25.6533 152.186 25.62 151.773 25.62C151.146 25.62 150.653 25.74 150.293 25.98C149.946 26.2067 149.773 26.52 149.773 26.92ZM158.747 30V19.58H161.487V20.38C162.234 19.7133 163.14 19.38 164.207 19.38C164.887 19.38 165.494 19.52 166.027 19.8C166.56 20.0667 167 20.4467 167.347 20.94C167.774 20.4333 168.274 20.0467 168.847 19.78C169.434 19.5133 170.08 19.38 170.787 19.38C171.574 19.38 172.26 19.56 172.847 19.92C173.447 20.2667 173.914 20.7533 174.247 21.38C174.594 21.9933 174.767 22.7133 174.767 23.54V30H172.047V23.94C172.047 23.26 171.867 22.7267 171.507 22.34C171.147 21.94 170.667 21.74 170.067 21.74C169.654 21.74 169.274 21.8267 168.927 22C168.594 22.1733 168.307 22.4333 168.067 22.78C168.08 22.9 168.094 23.02 168.107 23.14C168.12 23.26 168.127 23.3933 168.127 23.54V30H165.387V23.94C165.387 23.26 165.207 22.7267 164.847 22.34C164.5 21.94 164.027 21.74 163.427 21.74C163.014 21.74 162.64 21.82 162.307 21.98C161.987 22.14 161.714 22.38 161.487 22.7V30H158.747ZM181.932 30.2C180.892 30.2 179.952 29.96 179.112 29.48C178.272 29 177.606 28.3533 177.112 27.54C176.619 26.7267 176.372 25.8133 176.372 24.8C176.372 23.7867 176.612 22.8733 177.092 22.06C177.586 21.2333 178.252 20.58 179.092 20.1C179.946 19.62 180.892 19.38 181.932 19.38C182.972 19.38 183.912 19.62 184.752 20.1C185.606 20.58 186.272 21.2333 186.752 22.06C187.246 22.8733 187.492 23.7867 187.492 24.8C187.492 25.8133 187.246 26.7267 186.752 27.54C186.272 28.3533 185.612 29 184.772 29.48C183.932 29.96 182.986 30.2 181.932 30.2ZM181.932 27.82C182.479 27.82 182.966 27.6867 183.392 27.42C183.832 27.1533 184.179 26.7933 184.432 26.34C184.699 25.8733 184.832 25.36 184.832 24.8C184.832 24.2267 184.699 23.7133 184.432 23.26C184.179 22.8067 183.832 22.4467 183.392 22.18C182.966 21.9 182.479 21.76 181.932 21.76C181.399 21.76 180.912 21.9 180.472 22.18C180.032 22.4467 179.686 22.8067 179.432 23.26C179.179 23.7133 179.052 24.2267 179.052 24.8C179.052 25.36 179.179 25.8733 179.432 26.34C179.686 26.7933 180.032 27.1533 180.472 27.42C180.912 27.6867 181.399 27.82 181.932 27.82ZM193.077 30.2C192.117 30.2 191.23 30.08 190.417 29.84C189.603 29.5867 188.897 29.2267 188.297 28.76L189.657 26.94C190.257 27.34 190.83 27.64 191.377 27.84C191.937 28.04 192.49 28.14 193.037 28.14C193.65 28.14 194.137 28.04 194.497 27.84C194.87 27.6267 195.057 27.3533 195.057 27.02C195.057 26.7533 194.95 26.54 194.737 26.38C194.537 26.22 194.21 26.1067 193.757 26.04L191.757 25.74C190.717 25.58 189.93 25.2467 189.397 24.74C188.863 24.22 188.597 23.54 188.597 22.7C188.597 22.02 188.77 21.44 189.117 20.96C189.477 20.4667 189.977 20.0867 190.617 19.82C191.27 19.54 192.043 19.4 192.937 19.4C193.697 19.4 194.437 19.5067 195.157 19.72C195.89 19.9333 196.577 20.26 197.217 20.7L195.897 22.48C195.323 22.12 194.777 21.86 194.257 21.7C193.737 21.54 193.21 21.46 192.677 21.46C192.183 21.46 191.783 21.5533 191.477 21.74C191.183 21.9267 191.037 22.1733 191.037 22.48C191.037 22.76 191.143 22.98 191.357 23.14C191.57 23.3 191.937 23.4133 192.457 23.48L194.437 23.78C195.477 23.9267 196.27 24.26 196.817 24.78C197.363 25.2867 197.637 25.9467 197.637 26.76C197.637 27.4267 197.437 28.02 197.037 28.54C196.637 29.0467 196.097 29.4533 195.417 29.76C194.737 30.0533 193.957 30.2 193.077 30.2ZM208.124 30.2C207.084 30.2 206.138 29.96 205.284 29.48C204.444 29 203.778 28.3533 203.284 27.54C202.791 26.7267 202.544 25.8133 202.544 24.8C202.544 23.7867 202.778 22.8733 203.244 22.06C203.724 21.2467 204.371 20.6 205.184 20.12C205.998 19.64 206.904 19.4 207.904 19.4C208.904 19.4 209.791 19.6467 210.564 20.14C211.338 20.6333 211.944 21.3 212.384 22.14C212.838 22.98 213.064 23.9333 213.064 25V25.72H205.344C205.464 26.1333 205.658 26.5067 205.924 26.84C206.204 27.1733 206.544 27.4333 206.944 27.62C207.358 27.8067 207.798 27.9 208.264 27.9C208.731 27.9 209.158 27.8267 209.544 27.68C209.944 27.5333 210.284 27.3267 210.564 27.06L212.364 28.7C211.724 29.22 211.064 29.6 210.384 29.84C209.718 30.08 208.964 30.2 208.124 30.2ZM205.304 23.76H210.364C210.271 23.3467 210.098 22.9867 209.844 22.68C209.604 22.36 209.311 22.1133 208.964 21.94C208.631 21.7533 208.258 21.66 207.844 21.66C207.418 21.66 207.031 21.7467 206.684 21.92C206.338 22.0933 206.044 22.34 205.804 22.66C205.578 22.9667 205.411 23.3333 205.304 23.76ZM214.743 30V19.58H217.483V20.38C218.23 19.7133 219.136 19.38 220.203 19.38C220.883 19.38 221.49 19.52 222.023 19.8C222.556 20.0667 222.996 20.4467 223.343 20.94C223.77 20.4333 224.27 20.0467 224.843 19.78C225.43 19.5133 226.076 19.38 226.783 19.38C227.57 19.38 228.256 19.56 228.843 19.92C229.443 20.2667 229.91 20.7533 230.243 21.38C230.59 21.9933 230.763 22.7133 230.763 23.54V30H228.043V23.94C228.043 23.26 227.863 22.7267 227.503 22.34C227.143 21.94 226.663 21.74 226.063 21.74C225.65 21.74 225.27 21.8267 224.923 22C224.59 22.1733 224.303 22.4333 224.063 22.78C224.076 22.9 224.09 23.02 224.103 23.14C224.116 23.26 224.123 23.3933 224.123 23.54V30H221.383V23.94C221.383 23.26 221.203 22.7267 220.843 22.34C220.496 21.94 220.023 21.74 219.423 21.74C219.01 21.74 218.636 21.82 218.303 21.98C217.983 22.14 217.71 22.38 217.483 22.7V30H214.743ZM91.9497 56.18C91.203 56.18 90.543 56.0467 89.9697 55.78C89.3963 55.5 88.9497 55.12 88.6297 54.64C88.3097 54.16 88.1497 53.6067 88.1497 52.98C88.1497 51.98 88.523 51.2067 89.2697 50.66C90.0297 50.1 91.0697 49.82 92.3897 49.82C93.2963 49.82 94.1497 49.96 94.9497 50.24V49.48C94.9497 48.88 94.763 48.4267 94.3897 48.12C94.0163 47.8133 93.4697 47.66 92.7497 47.66C92.3097 47.66 91.8363 47.7333 91.3297 47.88C90.823 48.0133 90.2363 48.2267 89.5697 48.52L88.5697 46.5C89.3963 46.1267 90.183 45.8467 90.9297 45.66C91.6897 45.4733 92.4497 45.38 93.2097 45.38C94.6097 45.38 95.6963 45.72 96.4697 46.4C97.2563 47.0667 97.6497 48.0133 97.6497 49.24V56H94.9497V55.26C94.523 55.58 94.063 55.8133 93.5697 55.96C93.0763 56.1067 92.5363 56.18 91.9497 56.18ZM90.7497 52.92C90.7497 53.32 90.923 53.64 91.2697 53.88C91.6163 54.1067 92.0763 54.22 92.6497 54.22C93.103 54.22 93.523 54.1667 93.9097 54.06C94.2963 53.94 94.643 53.7667 94.9497 53.54V52.02C94.6163 51.8867 94.2697 51.7867 93.9097 51.72C93.5497 51.6533 93.163 51.62 92.7497 51.62C92.123 51.62 91.6297 51.74 91.2697 51.98C90.923 52.2067 90.7497 52.52 90.7497 52.92ZM104.37 56.16C103.21 56.16 102.33 55.9 101.73 55.38C101.144 54.8467 100.85 54.0733 100.85 53.06V47.86H98.7105V45.58H100.85V42.92L103.59 42.3V45.58H106.57V47.86H103.59V52.5C103.59 52.98 103.697 53.3267 103.91 53.54C104.124 53.74 104.497 53.84 105.03 53.84C105.297 53.84 105.537 53.8267 105.75 53.8C105.977 53.76 106.224 53.6933 106.49 53.6V55.86C106.21 55.9533 105.857 56.0267 105.43 56.08C105.017 56.1333 104.664 56.16 104.37 56.16ZM112.89 56.2C111.85 56.2 110.903 55.96 110.05 55.48C109.21 55 108.543 54.3533 108.05 53.54C107.557 52.7267 107.31 51.8133 107.31 50.8C107.31 49.7867 107.543 48.8733 108.01 48.06C108.49 47.2467 109.137 46.6 109.95 46.12C110.763 45.64 111.67 45.4 112.67 45.4C113.67 45.4 114.557 45.6467 115.33 46.14C116.103 46.6333 116.71 47.3 117.15 48.14C117.603 48.98 117.83 49.9333 117.83 51V51.72H110.11C110.23 52.1333 110.423 52.5067 110.69 52.84C110.97 53.1733 111.31 53.4333 111.71 53.62C112.123 53.8067 112.563 53.9 113.03 53.9C113.497 53.9 113.923 53.8267 114.31 53.68C114.71 53.5333 115.05 53.3267 115.33 53.06L117.13 54.7C116.49 55.22 115.83 55.6 115.15 55.84C114.483 56.08 113.73 56.2 112.89 56.2ZM110.07 49.76H115.13C115.037 49.3467 114.863 48.9867 114.61 48.68C114.37 48.36 114.077 48.1133 113.73 47.94C113.397 47.7533 113.023 47.66 112.61 47.66C112.183 47.66 111.797 47.7467 111.45 47.92C111.103 48.0933 110.81 48.34 110.57 48.66C110.343 48.9667 110.177 49.3333 110.07 49.76ZM111.01 43.84L112.81 41.24H115.93L113.23 43.84H111.01ZM129.272 56.22C128.085 56.22 127.045 55.9267 126.152 55.34C125.259 54.7533 124.559 53.9467 124.052 52.92C123.559 51.88 123.312 50.6733 123.312 49.3C123.312 47.7933 123.585 46.48 124.132 45.36C124.692 44.2267 125.465 43.3467 126.452 42.72C127.452 42.0933 128.619 41.78 129.952 41.78C130.685 41.78 131.412 41.9 132.132 42.14C132.852 42.38 133.452 42.7133 133.932 43.14L132.452 45.02C132.065 44.7133 131.652 44.4867 131.212 44.34C130.772 44.1933 130.285 44.12 129.752 44.12C128.939 44.12 128.245 44.3267 127.672 44.74C127.099 45.1533 126.659 45.7467 126.352 46.52C126.059 47.28 125.905 48.2133 125.892 49.32C126.359 48.68 126.919 48.1867 127.572 47.84C128.225 47.48 128.912 47.3 129.632 47.3C130.552 47.3 131.365 47.4867 132.072 47.86C132.779 48.22 133.332 48.7267 133.732 49.38C134.132 50.02 134.332 50.7533 134.332 51.58C134.332 52.46 134.112 53.2533 133.672 53.96C133.232 54.6533 132.632 55.2067 131.872 55.62C131.112 56.02 130.245 56.22 129.272 56.22ZM129.192 49.36C128.579 49.36 127.999 49.4867 127.452 49.74C126.919 49.9933 126.445 50.3533 126.032 50.82C126.165 51.46 126.372 52.02 126.652 52.5C126.945 52.9667 127.305 53.3267 127.732 53.58C128.159 53.8333 128.632 53.96 129.152 53.96C129.645 53.96 130.085 53.86 130.472 53.66C130.872 53.46 131.185 53.1867 131.412 52.84C131.639 52.48 131.752 52.08 131.752 51.64C131.752 51.1867 131.645 50.7933 131.432 50.46C131.219 50.1133 130.919 49.8467 130.532 49.66C130.159 49.46 129.712 49.36 129.192 49.36ZM135.127 56L139.127 50.7L135.227 45.58H138.407L140.707 48.68L142.987 45.58H146.067L142.227 50.66L146.307 56H143.107L140.647 52.68L138.187 56H135.127ZM155.264 56.2C154.304 56.2 153.417 56.08 152.604 55.84C151.791 55.5867 151.084 55.2267 150.484 54.76L151.844 52.94C152.444 53.34 153.017 53.64 153.564 53.84C154.124 54.04 154.677 54.14 155.224 54.14C155.837 54.14 156.324 54.04 156.684 53.84C157.057 53.6267 157.244 53.3533 157.244 53.02C157.244 52.7533 157.137 52.54 156.924 52.38C156.724 52.22 156.397 52.1067 155.944 52.04L153.944 51.74C152.904 51.58 152.117 51.2467 151.584 50.74C151.051 50.22 150.784 49.54 150.784 48.7C150.784 48.02 150.957 47.44 151.304 46.96C151.664 46.4667 152.164 46.0867 152.804 45.82C153.457 45.54 154.231 45.4 155.124 45.4C155.884 45.4 156.624 45.5067 157.344 45.72C158.077 45.9333 158.764 46.26 159.404 46.7L158.084 48.48C157.511 48.12 156.964 47.86 156.444 47.7C155.924 47.54 155.397 47.46 154.864 47.46C154.371 47.46 153.971 47.5533 153.664 47.74C153.371 47.9267 153.224 48.1733 153.224 48.48C153.224 48.76 153.331 48.98 153.544 49.14C153.757 49.3 154.124 49.4133 154.644 49.48L156.624 49.78C157.664 49.9267 158.457 50.26 159.004 50.78C159.551 51.2867 159.824 51.9467 159.824 52.76C159.824 53.4267 159.624 54.02 159.224 54.54C158.824 55.0467 158.284 55.4533 157.604 55.76C156.924 56.0533 156.144 56.2 155.264 56.2ZM166.386 56.2C165.346 56.2 164.399 55.96 163.546 55.48C162.706 55 162.039 54.3533 161.546 53.54C161.053 52.7267 160.806 51.8133 160.806 50.8C160.806 49.7867 161.039 48.8733 161.506 48.06C161.986 47.2467 162.633 46.6 163.446 46.12C164.259 45.64 165.166 45.4 166.166 45.4C167.166 45.4 168.053 45.6467 168.826 46.14C169.599 46.6333 170.206 47.3 170.646 48.14C171.099 48.98 171.326 49.9333 171.326 51V51.72H163.606C163.726 52.1333 163.919 52.5067 164.186 52.84C164.466 53.1733 164.806 53.4333 165.206 53.62C165.619 53.8067 166.059 53.9 166.526 53.9C166.993 53.9 167.419 53.8267 167.806 53.68C168.206 53.5333 168.546 53.3267 168.826 53.06L170.626 54.7C169.986 55.22 169.326 55.6 168.646 55.84C167.979 56.08 167.226 56.2 166.386 56.2ZM163.566 49.76H168.626C168.533 49.3467 168.359 48.9867 168.106 48.68C167.866 48.36 167.573 48.1133 167.226 47.94C166.893 47.7533 166.519 47.66 166.106 47.66C165.679 47.66 165.293 47.7467 164.946 47.92C164.599 48.0933 164.306 48.34 164.066 48.66C163.839 48.9667 163.673 49.3333 163.566 49.76ZM173.005 56V45.58H175.745V46.38C176.491 45.7133 177.398 45.38 178.465 45.38C179.145 45.38 179.751 45.52 180.285 45.8C180.818 46.0667 181.258 46.4467 181.605 46.94C182.031 46.4333 182.531 46.0467 183.105 45.78C183.691 45.5133 184.338 45.38 185.045 45.38C185.831 45.38 186.518 45.56 187.105 45.92C187.705 46.2667 188.171 46.7533 188.505 47.38C188.851 47.9933 189.025 48.7133 189.025 49.54V56H186.305V49.94C186.305 49.26 186.125 48.7267 185.765 48.34C185.405 47.94 184.925 47.74 184.325 47.74C183.911 47.74 183.531 47.8267 183.185 48C182.851 48.1733 182.565 48.4333 182.325 48.78C182.338 48.9 182.351 49.02 182.365 49.14C182.378 49.26 182.385 49.3933 182.385 49.54V56H179.645V49.94C179.645 49.26 179.465 48.7267 179.105 48.34C178.758 47.94 178.285 47.74 177.685 47.74C177.271 47.74 176.898 47.82 176.565 47.98C176.245 48.14 175.971 48.38 175.745 48.7V56H173.005ZM196.494 44.34C196.067 44.34 195.7 44.1867 195.394 43.88C195.087 43.5733 194.934 43.2067 194.934 42.78C194.934 42.34 195.087 41.9733 195.394 41.68C195.7 41.3733 196.067 41.22 196.494 41.22C196.934 41.22 197.3 41.3733 197.594 41.68C197.9 41.9733 198.054 42.34 198.054 42.78C198.054 43.2067 197.9 43.5733 197.594 43.88C197.3 44.1867 196.934 44.34 196.494 44.34ZM194.494 60.28C194.24 60.28 193.98 60.26 193.714 60.22C193.447 60.1933 193.234 60.1533 193.074 60.1V58C193.314 58.0533 193.607 58.08 193.954 58.08C194.354 58.08 194.647 57.9933 194.834 57.82C195.034 57.66 195.134 57.3933 195.134 57.02V45.58H197.874V57.18C197.874 58.1667 197.58 58.9267 196.994 59.46C196.407 60.0067 195.574 60.28 194.494 60.28ZM204.056 56.2C203.256 56.2 202.543 56.0267 201.916 55.68C201.303 55.32 200.816 54.8267 200.456 54.2C200.11 53.5733 199.936 52.8533 199.936 52.04V45.58H202.676V51.64C202.676 52.3067 202.87 52.84 203.256 53.24C203.656 53.64 204.19 53.84 204.856 53.84C205.31 53.84 205.716 53.7533 206.076 53.58C206.45 53.3933 206.756 53.1333 206.996 52.8V45.58H209.736V56H206.996V55.16C206.196 55.8533 205.216 56.2 204.056 56.2ZM211.872 56V45.58H214.612V46.74C214.945 46.2867 215.345 45.94 215.812 45.7C216.279 45.46 216.805 45.34 217.392 45.34C217.899 45.3533 218.279 45.4333 218.532 45.58V47.98C218.332 47.8867 218.112 47.82 217.872 47.78C217.632 47.7267 217.385 47.7 217.132 47.7C216.599 47.7 216.112 47.8333 215.672 48.1C215.232 48.3667 214.879 48.7467 214.612 49.24V56H211.872ZM224.706 56.2C223.666 56.2 222.726 55.96 221.886 55.48C221.046 55 220.379 54.3533 219.886 53.54C219.392 52.7267 219.146 51.8133 219.146 50.8C219.146 49.7867 219.386 48.8733 219.866 48.06C220.359 47.2333 221.026 46.58 221.866 46.1C222.719 45.62 223.666 45.38 224.706 45.38C225.746 45.38 226.686 45.62 227.526 46.1C228.379 46.58 229.046 47.2333 229.526 48.06C230.019 48.8733 230.266 49.7867 230.266 50.8C230.266 51.8133 230.019 52.7267 229.526 53.54C229.046 54.3533 228.386 55 227.546 55.48C226.706 55.96 225.759 56.2 224.706 56.2ZM224.706 53.82C225.252 53.82 225.739 53.6867 226.166 53.42C226.606 53.1533 226.952 52.7933 227.206 52.34C227.472 51.8733 227.606 51.36 227.606 50.8C227.606 50.2267 227.472 49.7133 227.206 49.26C226.952 48.8067 226.606 48.4467 226.166 48.18C225.739 47.9 225.252 47.76 224.706 47.76C224.172 47.76 223.686 47.9 223.246 48.18C222.806 48.4467 222.459 48.8067 222.206 49.26C221.952 49.7133 221.826 50.2267 221.826 50.8C221.826 51.36 221.952 51.8733 222.206 52.34C222.459 52.7933 222.806 53.1533 223.246 53.42C223.686 53.6867 224.172 53.82 224.706 53.82ZM235.85 56.2C234.89 56.2 234.003 56.08 233.19 55.84C232.377 55.5867 231.67 55.2267 231.07 54.76L232.43 52.94C233.03 53.34 233.603 53.64 234.15 53.84C234.71 54.04 235.263 54.14 235.81 54.14C236.423 54.14 236.91 54.04 237.27 53.84C237.643 53.6267 237.83 53.3533 237.83 53.02C237.83 52.7533 237.723 52.54 237.51 52.38C237.31 52.22 236.983 52.1067 236.53 52.04L234.53 51.74C233.49 51.58 232.703 51.2467 232.17 50.74C231.637 50.22 231.37 49.54 231.37 48.7C231.37 48.02 231.543 47.44 231.89 46.96C232.25 46.4667 232.75 46.0867 233.39 45.82C234.043 45.54 234.817 45.4 235.71 45.4C236.47 45.4 237.21 45.5067 237.93 45.72C238.663 45.9333 239.35 46.26 239.99 46.7L238.67 48.48C238.097 48.12 237.55 47.86 237.03 47.7C236.51 47.54 235.983 47.46 235.45 47.46C234.957 47.46 234.557 47.5533 234.25 47.74C233.957 47.9267 233.81 48.1733 233.81 48.48C233.81 48.76 233.917 48.98 234.13 49.14C234.343 49.3 234.71 49.4133 235.23 49.48L237.21 49.78C238.25 49.9267 239.043 50.26 239.59 50.78C240.137 51.2867 240.41 51.9467 240.41 52.76C240.41 53.4267 240.21 54.02 239.81 54.54C239.41 55.0467 238.87 55.4533 238.19 55.76C237.51 56.0533 236.73 56.2 235.85 56.2Z" fill="#F9F9F9"/>
<defs>
<clipPath id="clip0_304_177">
<rect width="65" height="55" fill="white" transform="translate(0 5)"/>
</clipPath>
</defs>
</svg>
