<svg width="310" height="71" viewBox="0 0 310 71" fill="none" xmlns="http://www.w3.org/2000/svg">
<g clip-path="url(#clip0_304_186)">
<path fill-rule="evenodd" clip-rule="evenodd" d="M7.39374 20.1194L11.8218 24.837C13.9918 20.7937 15.4015 17.6887 19.2825 14.9452C35.5255 3.46375 54.4578 15.897 54.4578 32.8386H50.3161C50.7813 34.6213 52.5889 35.7432 53.7991 36.9821C55.1088 38.3233 56.4786 39.4173 57.4701 40.9331C58.4141 40.2862 64.6148 34.3175 65.0002 32.8392H60.4819C60.4819 11.8531 38.089 -2.23866 19.4355 7.77958C13.0675 11.1996 10.8483 14.8383 7.39374 20.12V20.1194Z" fill="white"/>
<path fill-rule="evenodd" clip-rule="evenodd" d="M0.992875 33.2247H4.3813C4.3813 46.3977 13.3861 57.2284 25.7039 60.7312C33.0432 62.8183 40.0972 61.0082 45.425 58.2815C50.5505 55.6583 54.8102 51.0867 57.4689 45.9433L53.0414 41.2257C50.961 45.1068 49.6595 48.2341 45.5808 51.1175C29.2864 62.6353 10.4055 50.0622 10.4055 33.2241H14.5471C14.0819 31.4414 12.2743 30.3195 11.0641 29.0806C9.75445 27.74 8.38465 26.646 7.3931 25.1302C5.96263 26.1111 2.80761 29.6575 1.04535 31.3961C0.446814 31.987 -0.944849 33.2241 0.992329 33.2241L0.992875 33.2247Z" fill="white"/>
<path fill-rule="evenodd" clip-rule="evenodd" d="M20.5713 39.0054C21.7252 39.7966 30.3332 44.8069 31.8669 45.1723V32.8386C29.5111 32.1946 23.3781 27.7265 20.5713 27.0573V39.0054Z" fill="white"/>
<path fill-rule="evenodd" clip-rule="evenodd" d="M32.9962 32.8391V45.1728C35.3428 44.6133 42.1125 39.9113 44.2919 39.3915V27.0578C41.5982 27.7002 35.3248 32.2841 32.9962 32.8391Z" fill="white"/>
<path fill-rule="evenodd" clip-rule="evenodd" d="M21.3245 25.5157V26.2862C25.2224 27.2157 31.0826 32.8716 33.6276 31.5992L37.5145 28.9838C35.996 28.6218 31.6745 25.9998 29.4821 24.8723C26.9305 23.5601 26.977 23.0834 25.587 23.6754C24.0554 24.3284 23.1945 25.3557 21.3245 25.5146V25.5157Z" fill="white"/>
<path fill-rule="evenodd" clip-rule="evenodd" d="M27.7253 22.4326V23.2037C30.3786 23.8365 37.1822 28.5994 38.6438 28.5994C39.2085 28.5994 42.1132 26.627 43.5387 26.2868V25.5163C40.8319 25.2858 33.732 20.1457 31.7582 20.7439C30.202 21.2161 29.7779 22.258 27.7253 22.4326Z" fill="white"/>
</g>
<path d="M93.7563 30V18.56H89.0363V16H101.356V18.56H96.6563V30H93.7563ZM101.944 30V19.58H104.684V20.74C105.017 20.2867 105.417 19.94 105.884 19.7C106.35 19.46 106.877 19.34 107.464 19.34C107.97 19.3533 108.35 19.4333 108.604 19.58V21.98C108.404 21.8867 108.184 21.82 107.944 21.78C107.704 21.7267 107.457 21.7 107.204 21.7C106.67 21.7 106.184 21.8333 105.744 22.1C105.304 22.3667 104.95 22.7467 104.684 23.24V30H101.944ZM114.778 30.2C113.738 30.2 112.798 29.96 111.958 29.48C111.118 29 110.451 28.3533 109.958 27.54C109.464 26.7267 109.218 25.8133 109.218 24.8C109.218 23.7867 109.458 22.8733 109.938 22.06C110.431 21.2333 111.098 20.58 111.938 20.1C112.791 19.62 113.738 19.38 114.778 19.38C115.818 19.38 116.758 19.62 117.598 20.1C118.451 20.58 119.118 21.2333 119.598 22.06C120.091 22.8733 120.338 23.7867 120.338 24.8C120.338 25.8133 120.091 26.7267 119.598 27.54C119.118 28.3533 118.458 29 117.618 29.48C116.778 29.96 115.831 30.2 114.778 30.2ZM114.778 27.82C115.324 27.82 115.811 27.6867 116.238 27.42C116.678 27.1533 117.024 26.7933 117.278 26.34C117.544 25.8733 117.678 25.36 117.678 24.8C117.678 24.2267 117.544 23.7133 117.278 23.26C117.024 22.8067 116.678 22.4467 116.238 22.18C115.811 21.9 115.324 21.76 114.778 21.76C114.244 21.76 113.758 21.9 113.318 22.18C112.878 22.4467 112.531 22.8067 112.278 23.26C112.024 23.7133 111.898 24.2267 111.898 24.8C111.898 25.36 112.024 25.8733 112.278 26.34C112.531 26.7933 112.878 27.1533 113.318 27.42C113.758 27.6867 114.244 27.82 114.778 27.82ZM129.762 34.08V29.18C128.922 29.82 127.949 30.14 126.842 30.14C125.855 30.14 124.962 29.9 124.162 29.42C123.362 28.94 122.722 28.3 122.242 27.5C121.775 26.6867 121.542 25.78 121.542 24.78C121.542 23.78 121.775 22.88 122.242 22.08C122.722 21.2667 123.369 20.6267 124.182 20.16C124.995 19.68 125.909 19.44 126.922 19.44C127.455 19.44 127.962 19.5133 128.442 19.66C128.935 19.8067 129.389 20.0133 129.802 20.28V19.58H132.502V34.08H129.762ZM127.282 27.8C127.789 27.8 128.249 27.72 128.662 27.56C129.089 27.3867 129.455 27.1333 129.762 26.8V22.74C129.455 22.4333 129.089 22.1933 128.662 22.02C128.235 21.8467 127.775 21.76 127.282 21.76C126.709 21.76 126.189 21.8933 125.722 22.16C125.269 22.4133 124.909 22.7733 124.642 23.24C124.375 23.6933 124.242 24.2067 124.242 24.78C124.242 25.3533 124.375 25.8667 124.642 26.32C124.909 26.7733 125.269 27.1333 125.722 27.4C126.189 27.6667 126.709 27.8 127.282 27.8ZM138.679 30.2C137.879 30.2 137.166 30.0267 136.539 29.68C135.926 29.32 135.439 28.8267 135.079 28.2C134.732 27.5733 134.559 26.8533 134.559 26.04V19.58H137.299V25.64C137.299 26.3067 137.492 26.84 137.879 27.24C138.279 27.64 138.812 27.84 139.479 27.84C139.932 27.84 140.339 27.7533 140.699 27.58C141.072 27.3933 141.379 27.1333 141.619 26.8V19.58H144.359V30H141.619V29.16C140.819 29.8533 139.839 30.2 138.679 30.2ZM151.595 30.2C150.555 30.2 149.608 29.96 148.755 29.48C147.915 29 147.248 28.3533 146.755 27.54C146.261 26.7267 146.015 25.8133 146.015 24.8C146.015 23.7867 146.248 22.8733 146.715 22.06C147.195 21.2467 147.841 20.6 148.655 20.12C149.468 19.64 150.375 19.4 151.375 19.4C152.375 19.4 153.261 19.6467 154.035 20.14C154.808 20.6333 155.415 21.3 155.855 22.14C156.308 22.98 156.535 23.9333 156.535 25V25.72H148.815C148.935 26.1333 149.128 26.5067 149.395 26.84C149.675 27.1733 150.015 27.4333 150.415 27.62C150.828 27.8067 151.268 27.9 151.735 27.9C152.201 27.9 152.628 27.8267 153.015 27.68C153.415 27.5333 153.755 27.3267 154.035 27.06L155.835 28.7C155.195 29.22 154.535 29.6 153.855 29.84C153.188 30.08 152.435 30.2 151.595 30.2ZM148.775 23.76H153.835C153.741 23.3467 153.568 22.9867 153.315 22.68C153.075 22.36 152.781 22.1133 152.435 21.94C152.101 21.7533 151.728 21.66 151.315 21.66C150.888 21.66 150.501 21.7467 150.155 21.92C149.808 22.0933 149.515 22.34 149.275 22.66C149.048 22.9667 148.881 23.3333 148.775 23.76ZM167.477 34.28C166.677 34.28 165.903 34.1933 165.157 34.02C164.41 33.86 163.737 33.6267 163.137 33.32L164.097 31.2C164.67 31.48 165.23 31.6867 165.777 31.82C166.323 31.9533 166.87 32.02 167.417 32.02C168.23 32.02 168.843 31.8467 169.257 31.5C169.683 31.1533 169.897 30.6333 169.897 29.94V29.12C169.043 29.7467 168.09 30.06 167.037 30.06C166.05 30.06 165.157 29.8267 164.357 29.36C163.57 28.88 162.937 28.2333 162.457 27.42C161.99 26.6067 161.757 25.7067 161.757 24.72C161.757 23.7333 161.99 22.84 162.457 22.04C162.937 21.24 163.583 20.6067 164.397 20.14C165.21 19.66 166.117 19.42 167.117 19.42C167.623 19.42 168.117 19.4933 168.597 19.64C169.077 19.7867 169.523 19.9933 169.937 20.26V19.58H172.637V29.98C172.637 31.3533 172.19 32.4133 171.297 33.16C170.417 33.9067 169.143 34.28 167.477 34.28ZM167.457 27.74C167.963 27.74 168.423 27.66 168.837 27.5C169.25 27.3267 169.603 27.0867 169.897 26.78V22.7C169.603 22.4067 169.243 22.18 168.817 22.02C168.403 21.8467 167.957 21.76 167.477 21.76C166.903 21.76 166.39 21.8933 165.937 22.16C165.483 22.4133 165.123 22.7667 164.857 23.22C164.59 23.66 164.457 24.16 164.457 24.72C164.457 25.2933 164.583 25.8067 164.837 26.26C165.103 26.7133 165.463 27.0733 165.917 27.34C166.383 27.6067 166.897 27.74 167.457 27.74ZM174.776 30V19.58H177.516V20.74C177.849 20.2867 178.249 19.94 178.716 19.7C179.183 19.46 179.709 19.34 180.296 19.34C180.803 19.3533 181.183 19.4333 181.436 19.58V21.98C181.236 21.8867 181.016 21.82 180.776 21.78C180.536 21.7267 180.289 21.7 180.036 21.7C179.503 21.7 179.016 21.8333 178.576 22.1C178.136 22.3667 177.783 22.7467 177.516 23.24V30H174.776ZM185.967 30.18C185.22 30.18 184.56 30.0467 183.987 29.78C183.414 29.5 182.967 29.12 182.647 28.64C182.327 28.16 182.167 27.6067 182.167 26.98C182.167 25.98 182.54 25.2067 183.287 24.66C184.047 24.1 185.087 23.82 186.407 23.82C187.314 23.82 188.167 23.96 188.967 24.24V23.48C188.967 22.88 188.78 22.4267 188.407 22.12C188.034 21.8133 187.487 21.66 186.767 21.66C186.327 21.66 185.854 21.7333 185.347 21.88C184.84 22.0133 184.254 22.2267 183.587 22.52L182.587 20.5C183.414 20.1267 184.2 19.8467 184.947 19.66C185.707 19.4733 186.467 19.38 187.227 19.38C188.627 19.38 189.714 19.72 190.487 20.4C191.274 21.0667 191.667 22.0133 191.667 23.24V30H188.967V29.26C188.54 29.58 188.08 29.8133 187.587 29.96C187.094 30.1067 186.554 30.18 185.967 30.18ZM184.767 26.92C184.767 27.32 184.94 27.64 185.287 27.88C185.634 28.1067 186.094 28.22 186.667 28.22C187.12 28.22 187.54 28.1667 187.927 28.06C188.314 27.94 188.66 27.7667 188.967 27.54V26.02C188.634 25.8867 188.287 25.7867 187.927 25.72C187.567 25.6533 187.18 25.62 186.767 25.62C186.14 25.62 185.647 25.74 185.287 25.98C184.94 26.2067 184.767 26.52 184.767 26.92ZM185.347 17.84L187.147 15.24H190.267L187.567 17.84H185.347ZM198.388 30.16C197.228 30.16 196.348 29.9 195.748 29.38C195.161 28.8467 194.868 28.0733 194.868 27.06V21.86H192.728V19.58H194.868V16.92L197.608 16.3V19.58H200.588V21.86H197.608V26.5C197.608 26.98 197.714 27.3267 197.928 27.54C198.141 27.74 198.514 27.84 199.048 27.84C199.314 27.84 199.554 27.8267 199.768 27.8C199.994 27.76 200.241 27.6933 200.508 27.6V29.86C200.228 29.9533 199.874 30.0267 199.448 30.08C199.034 30.1333 198.681 30.16 198.388 30.16ZM201.924 30V19.58H204.664V30H201.924ZM203.284 18.34C202.858 18.34 202.491 18.1867 202.184 17.88C201.878 17.5733 201.724 17.2067 201.724 16.78C201.724 16.34 201.878 15.9733 202.184 15.68C202.491 15.3733 202.858 15.22 203.284 15.22C203.724 15.22 204.091 15.3733 204.384 15.68C204.691 15.9733 204.844 16.34 204.844 16.78C204.844 17.2067 204.691 17.5733 204.384 17.88C204.091 18.1867 203.724 18.34 203.284 18.34ZM210.707 30.2C209.747 30.2 208.86 30.08 208.047 29.84C207.234 29.5867 206.527 29.2267 205.927 28.76L207.287 26.94C207.887 27.34 208.46 27.64 209.007 27.84C209.567 28.04 210.12 28.14 210.667 28.14C211.28 28.14 211.767 28.04 212.127 27.84C212.5 27.6267 212.687 27.3533 212.687 27.02C212.687 26.7533 212.58 26.54 212.367 26.38C212.167 26.22 211.84 26.1067 211.387 26.04L209.387 25.74C208.347 25.58 207.56 25.2467 207.027 24.74C206.494 24.22 206.227 23.54 206.227 22.7C206.227 22.02 206.4 21.44 206.747 20.96C207.107 20.4667 207.607 20.0867 208.247 19.82C208.9 19.54 209.674 19.4 210.567 19.4C211.327 19.4 212.067 19.5067 212.787 19.72C213.52 19.9333 214.207 20.26 214.847 20.7L213.527 22.48C212.954 22.12 212.407 21.86 211.887 21.7C211.367 21.54 210.84 21.46 210.307 21.46C209.814 21.46 209.414 21.5533 209.107 21.74C208.814 21.9267 208.667 22.1733 208.667 22.48C208.667 22.76 208.774 22.98 208.987 23.14C209.2 23.3 209.567 23.4133 210.087 23.48L212.067 23.78C213.107 23.9267 213.9 24.26 214.447 24.78C214.994 25.2867 215.267 25.9467 215.267 26.76C215.267 27.4267 215.067 28.02 214.667 28.54C214.267 29.0467 213.727 29.4533 213.047 29.76C212.367 30.0533 211.587 30.2 210.707 30.2ZM94.8563 56.2C93.8163 56.2 92.8697 55.96 92.0163 55.48C91.1763 55 90.5097 54.3533 90.0163 53.54C89.523 52.7267 89.2763 51.8133 89.2763 50.8C89.2763 49.7867 89.5097 48.8733 89.9763 48.06C90.4563 47.2467 91.103 46.6 91.9163 46.12C92.7297 45.64 93.6363 45.4 94.6363 45.4C95.6363 45.4 96.523 45.6467 97.2963 46.14C98.0697 46.6333 98.6763 47.3 99.1163 48.14C99.5697 48.98 99.7963 49.9333 99.7963 51V51.72H92.0763C92.1963 52.1333 92.3897 52.5067 92.6563 52.84C92.9363 53.1733 93.2763 53.4333 93.6763 53.62C94.0897 53.8067 94.5297 53.9 94.9963 53.9C95.463 53.9 95.8897 53.8267 96.2763 53.68C96.6763 53.5333 97.0163 53.3267 97.2963 53.06L99.0963 54.7C98.4563 55.22 97.7963 55.6 97.1163 55.84C96.4497 56.08 95.6963 56.2 94.8563 56.2ZM92.0363 49.76H97.0963C97.003 49.3467 96.8297 48.9867 96.5763 48.68C96.3363 48.36 96.043 48.1133 95.6963 47.94C95.363 47.7533 94.9897 47.66 94.5763 47.66C94.1497 47.66 93.763 47.7467 93.4163 47.92C93.0697 48.0933 92.7763 48.34 92.5363 48.66C92.3097 48.9667 92.143 49.3333 92.0363 49.76ZM101.475 56V45.58H104.215V46.38C104.962 45.7133 105.868 45.38 106.935 45.38C107.615 45.38 108.222 45.52 108.755 45.8C109.288 46.0667 109.728 46.4467 110.075 46.94C110.502 46.4333 111.002 46.0467 111.575 45.78C112.162 45.5133 112.808 45.38 113.515 45.38C114.302 45.38 114.988 45.56 115.575 45.92C116.175 46.2667 116.642 46.7533 116.975 47.38C117.322 47.9933 117.495 48.7133 117.495 49.54V56H114.775V49.94C114.775 49.26 114.595 48.7267 114.235 48.34C113.875 47.94 113.395 47.74 112.795 47.74C112.382 47.74 112.002 47.8267 111.655 48C111.322 48.1733 111.035 48.4333 110.795 48.78C110.808 48.9 110.822 49.02 110.835 49.14C110.848 49.26 110.855 49.3933 110.855 49.54V56H108.115V49.94C108.115 49.26 107.935 48.7267 107.575 48.34C107.228 47.94 106.755 47.74 106.155 47.74C105.742 47.74 105.368 47.82 105.035 47.98C104.715 48.14 104.442 48.38 104.215 48.7V56H101.475ZM126.924 56.18C126.177 56.18 125.517 56.0467 124.944 55.78C124.371 55.5 123.924 55.12 123.604 54.64C123.284 54.16 123.124 53.6067 123.124 52.98C123.124 51.98 123.497 51.2067 124.244 50.66C125.004 50.1 126.044 49.82 127.364 49.82C128.271 49.82 129.124 49.96 129.924 50.24V49.48C129.924 48.88 129.737 48.4267 129.364 48.12C128.991 47.8133 128.444 47.66 127.724 47.66C127.284 47.66 126.811 47.7333 126.304 47.88C125.797 48.0133 125.211 48.2267 124.544 48.52L123.544 46.5C124.371 46.1267 125.157 45.8467 125.904 45.66C126.664 45.4733 127.424 45.38 128.184 45.38C129.584 45.38 130.671 45.72 131.444 46.4C132.231 47.0667 132.624 48.0133 132.624 49.24V56H129.924V55.26C129.497 55.58 129.037 55.8133 128.544 55.96C128.051 56.1067 127.511 56.18 126.924 56.18ZM125.724 52.92C125.724 53.32 125.897 53.64 126.244 53.88C126.591 54.1067 127.051 54.22 127.624 54.22C128.077 54.22 128.497 54.1667 128.884 54.06C129.271 53.94 129.617 53.7667 129.924 53.54V52.02C129.591 51.8867 129.244 51.7867 128.884 51.72C128.524 51.6533 128.137 51.62 127.724 51.62C127.097 51.62 126.604 51.74 126.244 51.98C125.897 52.2067 125.724 52.52 125.724 52.92ZM139.345 56.16C138.185 56.16 137.305 55.9 136.705 55.38C136.118 54.8467 135.825 54.0733 135.825 53.06V47.86H133.685V45.58H135.825V42.92L138.565 42.3V45.58H141.545V47.86H138.565V52.5C138.565 52.98 138.671 53.3267 138.885 53.54C139.098 53.74 139.471 53.84 140.005 53.84C140.271 53.84 140.511 53.8267 140.725 53.8C140.951 53.76 141.198 53.6933 141.465 53.6V55.86C141.185 55.9533 140.831 56.0267 140.405 56.08C139.991 56.1333 139.638 56.16 139.345 56.16ZM147.864 56.2C146.824 56.2 145.877 55.96 145.024 55.48C144.184 55 143.517 54.3533 143.024 53.54C142.531 52.7267 142.284 51.8133 142.284 50.8C142.284 49.7867 142.517 48.8733 142.984 48.06C143.464 47.2467 144.111 46.6 144.924 46.12C145.737 45.64 146.644 45.4 147.644 45.4C148.644 45.4 149.531 45.6467 150.304 46.14C151.077 46.6333 151.684 47.3 152.124 48.14C152.577 48.98 152.804 49.9333 152.804 51V51.72H145.084C145.204 52.1333 145.397 52.5067 145.664 52.84C145.944 53.1733 146.284 53.4333 146.684 53.62C147.097 53.8067 147.537 53.9 148.004 53.9C148.471 53.9 148.897 53.8267 149.284 53.68C149.684 53.5333 150.024 53.3267 150.304 53.06L152.104 54.7C151.464 55.22 150.804 55.6 150.124 55.84C149.457 56.08 148.704 56.2 147.864 56.2ZM145.044 49.76H150.104C150.011 49.3467 149.837 48.9867 149.584 48.68C149.344 48.36 149.051 48.1133 148.704 47.94C148.371 47.7533 147.997 47.66 147.584 47.66C147.157 47.66 146.771 47.7467 146.424 47.92C146.077 48.0933 145.784 48.34 145.544 48.66C145.317 48.9667 145.151 49.3333 145.044 49.76ZM145.984 43.84L147.784 41.24H150.904L148.204 43.84H145.984ZM163.406 56.22C162.326 56.22 161.32 56.0333 160.386 55.66C159.466 55.2733 158.693 54.7333 158.066 54.04L159.826 52.4C160.36 52.9733 160.886 53.3733 161.406 53.6C161.94 53.8133 162.593 53.92 163.366 53.92C163.926 53.92 164.413 53.84 164.826 53.68C165.253 53.5067 165.58 53.2667 165.806 52.96C166.046 52.6533 166.166 52.3 166.166 51.9C166.166 51.5267 166.073 51.2067 165.886 50.94C165.7 50.6733 165.446 50.4667 165.126 50.32C164.806 50.16 164.426 50.08 163.986 50.08H162.226V47.92H163.746C164.373 47.92 164.866 47.76 165.226 47.44C165.586 47.1067 165.766 46.6533 165.766 46.08C165.766 45.7067 165.66 45.3733 165.446 45.08C165.233 44.7733 164.94 44.5333 164.566 44.36C164.206 44.1867 163.793 44.1 163.326 44.1C162.633 44.1 162.033 44.22 161.526 44.46C161.033 44.7 160.513 45.1267 159.966 45.74L158.186 44.1C158.84 43.3667 159.62 42.8 160.526 42.4C161.446 41.9867 162.413 41.78 163.426 41.78C164.4 41.78 165.26 41.9533 166.006 42.3C166.753 42.6333 167.34 43.1 167.766 43.7C168.193 44.3 168.406 44.9867 168.406 45.76C168.406 46.5067 168.16 47.1733 167.666 47.76C167.173 48.3333 166.533 48.7333 165.746 48.96C166.68 49.1467 167.42 49.52 167.966 50.08C168.526 50.64 168.806 51.3133 168.806 52.1C168.806 52.8867 168.573 53.5933 168.106 54.22C167.64 54.8467 167 55.34 166.186 55.7C165.386 56.0467 164.46 56.22 163.406 56.22ZM176.532 56.22C175.319 56.22 174.245 55.92 173.312 55.32C172.392 54.7067 171.672 53.86 171.152 52.78C170.645 51.6867 170.392 50.4267 170.392 49C170.392 47.56 170.645 46.3 171.152 45.22C171.672 44.14 172.392 43.3 173.312 42.7C174.245 42.0867 175.319 41.78 176.532 41.78C177.759 41.78 178.832 42.0867 179.752 42.7C180.685 43.3 181.405 44.14 181.912 45.22C182.432 46.3 182.692 47.56 182.692 49C182.692 50.4267 182.432 51.6867 181.912 52.78C181.405 53.86 180.685 54.7067 179.752 55.32C178.832 55.92 177.759 56.22 176.532 56.22ZM176.532 53.84C177.252 53.84 177.872 53.6467 178.392 53.26C178.912 52.8733 179.312 52.3133 179.592 51.58C179.885 50.8467 180.032 49.9867 180.032 49C180.032 48 179.885 47.14 179.592 46.42C179.312 45.6867 178.912 45.1267 178.392 44.74C177.872 44.3533 177.252 44.16 176.532 44.16C175.825 44.16 175.212 44.3533 174.692 44.74C174.172 45.1267 173.765 45.6867 173.472 46.42C173.192 47.14 173.052 48 173.052 49C173.052 49.9867 173.192 50.8467 173.472 51.58C173.765 52.3133 174.172 52.8733 174.692 53.26C175.212 53.6467 175.825 53.84 176.532 53.84ZM193.307 56.14C192.32 56.14 191.427 55.9 190.627 55.42C189.827 54.94 189.187 54.3 188.707 53.5C188.24 52.6867 188.007 51.78 188.007 50.78C188.007 49.78 188.24 48.88 188.707 48.08C189.187 47.2667 189.833 46.6267 190.647 46.16C191.46 45.68 192.373 45.44 193.387 45.44C193.907 45.44 194.407 45.5133 194.887 45.66C195.367 45.7933 195.813 45.9933 196.227 46.26V42L198.967 41.54V56H196.267V55.14C195.413 55.8067 194.427 56.14 193.307 56.14ZM193.747 53.8C194.253 53.8 194.713 53.72 195.127 53.56C195.553 53.3867 195.92 53.1333 196.227 52.8V48.74C195.92 48.4333 195.553 48.1933 195.127 48.02C194.7 47.8467 194.24 47.76 193.747 47.76C193.173 47.76 192.653 47.8933 192.187 48.16C191.733 48.4133 191.373 48.7733 191.107 49.24C190.84 49.6933 190.707 50.2067 190.707 50.78C190.707 51.3533 190.84 51.8667 191.107 52.32C191.373 52.7733 191.733 53.1333 192.187 53.4C192.653 53.6667 193.173 53.8 193.747 53.8ZM201.104 56V45.58H203.844V56H201.104ZM202.464 44.34C202.037 44.34 201.671 44.1867 201.364 43.88C201.057 43.5733 200.904 43.2067 200.904 42.78C200.904 42.34 201.057 41.9733 201.364 41.68C201.671 41.3733 202.037 41.22 202.464 41.22C202.904 41.22 203.271 41.3733 203.564 41.68C203.871 41.9733 204.024 42.34 204.024 42.78C204.024 43.2067 203.871 43.5733 203.564 43.88C203.271 44.1867 202.904 44.34 202.464 44.34ZM209.307 56.18C208.56 56.18 207.9 56.0467 207.327 55.78C206.753 55.5 206.307 55.12 205.987 54.64C205.667 54.16 205.507 53.6067 205.507 52.98C205.507 51.98 205.88 51.2067 206.627 50.66C207.387 50.1 208.427 49.82 209.747 49.82C210.653 49.82 211.507 49.96 212.307 50.24V49.48C212.307 48.88 212.12 48.4267 211.747 48.12C211.373 47.8133 210.827 47.66 210.107 47.66C209.667 47.66 209.193 47.7333 208.687 47.88C208.18 48.0133 207.593 48.2267 206.927 48.52L205.927 46.5C206.753 46.1267 207.54 45.8467 208.287 45.66C209.047 45.4733 209.807 45.38 210.567 45.38C211.967 45.38 213.053 45.72 213.827 46.4C214.613 47.0667 215.007 48.0133 215.007 49.24V56H212.307V55.26C211.88 55.58 211.42 55.8133 210.927 55.96C210.433 56.1067 209.893 56.18 209.307 56.18ZM208.107 52.92C208.107 53.32 208.28 53.64 208.627 53.88C208.973 54.1067 209.433 54.22 210.007 54.22C210.46 54.22 210.88 54.1667 211.267 54.06C211.653 53.94 212 53.7667 212.307 53.54V52.02C211.973 51.8867 211.627 51.7867 211.267 51.72C210.907 51.6533 210.52 51.62 210.107 51.62C209.48 51.62 208.987 51.74 208.627 51.98C208.28 52.2067 208.107 52.52 208.107 52.92ZM220.981 56.2C220.021 56.2 219.134 56.08 218.321 55.84C217.507 55.5867 216.801 55.2267 216.201 54.76L217.561 52.94C218.161 53.34 218.734 53.64 219.281 53.84C219.841 54.04 220.394 54.14 220.941 54.14C221.554 54.14 222.041 54.04 222.401 53.84C222.774 53.6267 222.961 53.3533 222.961 53.02C222.961 52.7533 222.854 52.54 222.641 52.38C222.441 52.22 222.114 52.1067 221.661 52.04L219.661 51.74C218.621 51.58 217.834 51.2467 217.301 50.74C216.767 50.22 216.501 49.54 216.501 48.7C216.501 48.02 216.674 47.44 217.021 46.96C217.381 46.4667 217.881 46.0867 218.521 45.82C219.174 45.54 219.947 45.4 220.841 45.4C221.601 45.4 222.341 45.5067 223.061 45.72C223.794 45.9333 224.481 46.26 225.121 46.7L223.801 48.48C223.227 48.12 222.681 47.86 222.161 47.7C221.641 47.54 221.114 47.46 220.581 47.46C220.087 47.46 219.687 47.5533 219.381 47.74C219.087 47.9267 218.941 48.1733 218.941 48.48C218.941 48.76 219.047 48.98 219.261 49.14C219.474 49.3 219.841 49.4133 220.361 49.48L222.341 49.78C223.381 49.9267 224.174 50.26 224.721 50.78C225.267 51.2867 225.541 51.9467 225.541 52.76C225.541 53.4267 225.341 54.02 224.941 54.54C224.541 55.0467 224.001 55.4533 223.321 55.76C222.641 56.0533 221.861 56.2 220.981 56.2Z" fill="#F9F9F9"/>
<defs>
<clipPath id="clip0_304_186">
<rect width="65" height="65" fill="white"/>
</clipPath>
</defs>
</svg>
