<svg width="65" height="65" viewBox="0 0 65 65" fill="none" xmlns="http://www.w3.org/2000/svg">
<g clip-path="url(#clip0_306_216)">
<path fill-rule="evenodd" clip-rule="evenodd" d="M7.39374 20.1194L11.8218 24.837C13.9918 20.7937 15.4015 17.6887 19.2825 14.9452C35.5255 3.46375 54.4578 15.897 54.4578 32.8386H50.3161C50.7813 34.6213 52.5889 35.7432 53.7991 36.9821C55.1088 38.3233 56.4786 39.4173 57.4701 40.9331C58.4141 40.2862 64.6148 34.3175 65.0002 32.8392H60.4819C60.4819 11.8531 38.089 -2.23866 19.4355 7.77958C13.0675 11.1996 10.8483 14.8383 7.39374 20.12V20.1194Z" fill="white"/>
<path fill-rule="evenodd" clip-rule="evenodd" d="M0.992875 33.2247H4.3813C4.3813 46.3977 13.3861 57.2284 25.7039 60.7312C33.0432 62.8183 40.0972 61.0082 45.425 58.2815C50.5505 55.6583 54.8102 51.0867 57.4689 45.9433L53.0414 41.2257C50.961 45.1068 49.6595 48.2341 45.5808 51.1175C29.2864 62.6353 10.4055 50.0622 10.4055 33.2241H14.5471C14.0819 31.4414 12.2743 30.3195 11.0641 29.0806C9.75445 27.74 8.38465 26.646 7.3931 25.1302C5.96263 26.1111 2.80761 29.6575 1.04535 31.3961C0.446814 31.987 -0.944849 33.2241 0.992329 33.2241L0.992875 33.2247Z" fill="white"/>
<path fill-rule="evenodd" clip-rule="evenodd" d="M20.5713 39.0054C21.7252 39.7966 30.3332 44.8069 31.8669 45.1723V32.8386C29.5111 32.1946 23.3781 27.7265 20.5713 27.0573V39.0054Z" fill="white"/>
<path fill-rule="evenodd" clip-rule="evenodd" d="M32.9962 32.8391V45.1728C35.3428 44.6133 42.1125 39.9113 44.2919 39.3915V27.0578C41.5982 27.7002 35.3248 32.2841 32.9962 32.8391Z" fill="white"/>
<path fill-rule="evenodd" clip-rule="evenodd" d="M21.3245 25.5157V26.2862C25.2224 27.2157 31.0826 32.8716 33.6276 31.5992L37.5145 28.9838C35.996 28.6218 31.6745 25.9998 29.4821 24.8723C26.9305 23.5601 26.977 23.0834 25.587 23.6754C24.0554 24.3284 23.1945 25.3557 21.3245 25.5146V25.5157Z" fill="white"/>
<path fill-rule="evenodd" clip-rule="evenodd" d="M27.7253 22.4326V23.2037C30.3786 23.8365 37.1822 28.5994 38.6438 28.5994C39.2085 28.5994 42.1132 26.627 43.5387 26.2868V25.5163C40.8319 25.2858 33.732 20.1457 31.7582 20.7439C30.202 21.2161 29.7779 22.258 27.7253 22.4326Z" fill="white"/>
</g>
<defs>
<clipPath id="clip0_306_216">
<rect width="65" height="65" fill="white"/>
</clipPath>
</defs>
</svg>
